<?xml version="1.0" standalone="no"?>
<!DOCTYPE svg PUBLIC "-//W3C//DTD SVG 1.1//EN" "http://www.w3.org/Graphics/SVG/1.1/DTD/svg11.dtd">
<svg xmlns="http://www.w3.org/2000/svg">
<metadata>Copyright (C) 2023 by original authors @ fontello.com</metadata>
<defs>
<font id="voyager2" horiz-adv-x="1000" >
<font-face font-family="voyager2" font-weight="400" font-stretch="normal" units-per-em="1000" ascent="850" descent="-150" />
<missing-glyph horiz-adv-x="1000" />
<glyph glyph-name="arrow-down-box" unicode="&#xe800;" d="M727 496h-72c-17 0-31-14-31-31h0c0-18 14-32 31-32h72c25 0 44-20 44-44v-349c0-24-19-44-44-44h-454c-24 0-44 20-44 44v349c0 24 20 44 44 44h72c17 0 31 14 31 32h0c0 17-14 31-31 31h-72c-59 0-106-48-106-107v-349c0-59 47-107 106-107h454c59 0 106 48 106 107v349c0 59-47 107-106 107z m-80-231l-125-125c-12-12-32-12-44 0l-125 125c-12 13-12 32 0 45 6 6 14 9 22 9s16-3 22-9l72-72v477c0 17 14 31 31 31s31-14 31-31v-477l72 72c12 12 32 12 44 0 12-13 12-32 0-45z" horiz-adv-x="1000" />

<glyph glyph-name="arrow-up-box" unicode="&#xe801;" d="M833 391v-350c0-59-47-106-106-106h-454c-59 0-106 47-106 106v350c0 59 47 106 106 106h72c17 0 31-14 31-31h0c0-17-14-31-31-31h-72c-24 0-44-20-44-44v-350c0-24 20-44 44-44h454c25 0 44 20 44 44v350c0 24-19 44-44 44h-72c-17 0-31 14-31 31h0c0 17 14 31 31 31h72c59 0 106-48 106-106z m-186 197c-6-6-14-9-22-9s-16 3-22 9l-72 72v-445c0-18-14-32-31-32s-31 14-31 32v445l-72-72c-12-12-32-12-44 0-12 13-12 32 0 45l125 125c12 12 32 12 44 0l125-125c12-13 12-32 0-45z" horiz-adv-x="1000" />

<glyph glyph-name="bin" unicode="&#xe802;" d="M813 683h-625c-35 0-63-28-63-62v-83c0-29 20-54 46-61l28-366c5-65 60-115 125-115h352c65 0 120 50 125 115l28 366c26 7 46 32 46 61v83c0 34-28 62-62 62z m-625-62h625v-83h-625v83z m550-505c-2-32-30-58-62-58h-352c-32 0-60 26-62 58l-28 359h532l-28-359z" horiz-adv-x="1000" />

<glyph glyph-name="clipboard" unicode="&#xe803;" d="M708 683h-48c-6 13-20 21-35 21h-44c-8 36-41 63-81 63s-71-27-81-63h-44c-15 0-29-8-35-21h-48c-46 0-84-37-84-83v-583c0-46 38-84 84-84h416c46 0 84 38 84 84v583c0 46-38 83-84 83z m-208 21c10 0 21-10 21-21s-11-20-21-20-21 10-21 20 11 21 21 21z m229-687c0-11-10-21-21-21h-416c-11 0-21 10-21 21v583c0 10 10 21 21 21h41c0-23 19-42 42-42h250c23 0 42 19 42 42h41c11 0 21-11 21-21v-583z" horiz-adv-x="1000" />

<glyph glyph-name="cube-box" unicode="&#xe804;" d="M792 496v104c0 35-28 63-63 63h-458c-35 0-63-28-63-63v-104h-125l84-146v-229c0-46 37-83 83-83h500c46 0 83 37 83 83v250l84 125h-125z m-521 104h271v-104h-271v104z m292-500h-313c-11 0-21 9-21 21v187h42c11 0 21 10 21 21v21c0 12-10 21-21 21h-44l-6 10-30 52h351v-10l17-52h-163c-12 0-21-9-21-21v-21c0-11 9-21 21-21h167v-208z m41 500h125v-104h-83l-42-63v167z m177-195l-10-15v-269c0-12-9-21-21-21h-125v208h83c12 0 21 10 21 21v21c0 12-9 21-21 21h-70l41 62h121l-19-28z" horiz-adv-x="1000" />

<glyph glyph-name="externaldrive" unicode="&#xe805;" d="M870 371c-2 8-7 15-12 22l-70 95c-24 31-61 50-100 50h-375c-40 0-77-19-100-50l-71-95c-5-7-9-14-12-22-3-9-5-18-5-28v-139c0-46 37-83 83-83h584c46 0 83 37 83 83v139c0 10-2 19-5 28z m-607 79c11 16 30 25 50 25h375c19 0 38-9 50-25l59-79h-594l60 79z m550-246c0-11-10-21-21-21h-584c-11 0-20 10-20 21v104h625v-104z m-125 42c0 23 18 42 41 42s42-19 42-42-19-42-42-42-41 19-41 42z m-84 0c0 11 10 21 21 21s21-10 21-21-9-21-21-21-21 9-21 21z" horiz-adv-x="1000" />

<glyph glyph-name="dmg" unicode="&#xe806;" d="M799 671c-4 31-30 54-61 54h-475c-31 0-58-23-62-54l-76-529v-104c0-35 28-63 63-63h625c34 0 62 28 62 63v104l-76 529z m-536-8h475l74-521h-624l75 521z m-13-625h-62v41h62v-41z m125 0v41h83v-41h-83z m438 0h-209v41h209v-41z m-313 604v-84h-208v84h208z m0-167c100 0 188-53 188-115s-88-114-188-114-187 53-187 114 87 115 187 115h0z m0 63c-138 0-250-80-250-178s112-177 250-177 250 80 250 177-112 178-250 178h0z" horiz-adv-x="1000" />

<glyph glyph-name="file-image" unicode="&#xe807;" d="M556 767h-264c-58 0-104-47-104-104v-625c0-58 46-105 104-105h416c58 0 105 47 105 105v454c0 16-6 31-17 43l-194 212c-12 12-29 20-46 20z m194-271h-187v208l187-208z m0-458c0-23-19-42-42-42h-416c-23 0-42 19-42 42v625c0 22 19 41 42 41h208v-208c0-35 28-63 63-63h187v-395z m-62 104c0-23-19-42-42-42h-292c-23 0-41 19-41 42 0 0 62 146 104 146 21 0 41-63 63-63 20 0 62 104 103 104s105-104 105-104v-83z m-271 166l-63 73c0 29 24 52 52 52s52-23 52-52-23-52-52-52-52 24-52 52z" horiz-adv-x="1000" />

<glyph glyph-name="file-text" unicode="&#xe808;" d="M583 767h-291c-58 0-104-47-104-104v-625c0-58 46-105 104-105h416c58 0 105 47 105 105v479l-230 250z m167-271h-187v208l187-208z m0-458c0-23-19-42-42-42h-416c-23 0-42 19-42 42v625c0 22 19 41 42 41h208v-208c0-35 28-63 63-63h187v-395z m-83 291h-334v63h334v-63z m-209-62h-125v-63h125v63z m125 0h-83v-63h83v63z" horiz-adv-x="1000" />

<glyph glyph-name="file-video" unicode="&#xe809;" d="M813 663h-625c-35 0-63-28-63-63v-437c0-69 56-125 125-125h500c69 0 125 56 125 125v437c0 35-28 63-62 63z m-250-63l41-104h-62l-42 104h63z m-146 0l41-104h-62l-42 104h63z m-146 0l42-104h-63l-42 104h63z m542-437c0-35-29-63-63-63h-500c-34 0-62 28-62 63v270h625v-270z m-396 47v155c0 23 30 35 50 20l105-77c15-10 15-30 0-41l-105-77c-20-15-50-2-50 21z" horiz-adv-x="1000" />

<glyph glyph-name="file-zip" unicode="&#xe80a;" d="M583 767h-291c-58 0-104-47-104-104v-625c0-58 46-105 104-105h416c58 0 105 47 105 105v479l-230 250z m167-729c0-23-19-42-42-42h-416c-23 0-42 19-42 42v625c0 22 19 41 42 41h41v-41h42v41h125v-208c0-35 28-63 63-63h187v-395z m0 458h-187v208l187-208z m-375 83h-42v42h42v-42z m0-83h-42v42h42v-42z m0-83h-42v41h42v-41z m37-144v1s-16 80-16 80c0 23-19 42-42 42s-41-19-41-42l-16-80v-1c-4-7-5-15-5-23 0-35 28-63 62-63s63 28 63 63c0 8-2 16-5 23z m-58-44c-11 0-21 9-21 21s10 21 21 21 21-10 21-21-9-21-21-21z" horiz-adv-x="1000" />

<glyph glyph-name="folder" unicode="&#xe80b;" d="M792 600h-354l-24 35c-11 17-31 28-52 28h-154c-46 0-83-38-83-84v-416c0-69 56-125 125-125h500c69 0 125 56 125 125v354c0 46-37 83-83 83z m-604-21c0 12 9 21 20 21h154l23-35 19-27h388c11 0 21-10 21-21v-42h-625v104z m625-416c0-35-29-63-63-63h-500c-34 0-62 28-62 63v250h625v-250z" horiz-adv-x="1000" />

<glyph glyph-name="folder-open" unicode="&#xe80c;" d="M896 475v42c0 46-37 83-83 83h-355l-23 35c-11 17-31 28-52 28h-154c-46 0-83-38-83-84v-437c0-29 12-55 30-74 19-19 45-30 74-30h542c57 0 104 46 104 104l83 333h-83z m-688 104c0 12 10 21 21 21h154l23-35 19-27h388c11 0 20-10 20-21v-42h-604l-21-83v187z m627-422l-2-8v-7c0-3 0-6 0-8h0c-1-3-1-5-3-7 0-1 0-1 0-2-1-2-2-4-4-6h0c-1-3-3-5-5-7-2-2-4-3-6-5h0c-2-1-5-3-7-4 0 0-1 0-1 0-2-1-5-2-7-2h0c-3-1-6-1-8-1h-542c-2 0-4 0-6 0-2 1-5 1-7 2-1 0-2 1-3 1h0c-2 1-4 2-5 3-2 1-4 2-5 4-3 2-5 4-7 6-1 2-2 4-3 6-1 1-2 3-3 5 0 1-1 1-1 2 0 3-1 5-1 7h0s69 277 69 277h621l-3-14-61-242z" horiz-adv-x="1000" />

<glyph glyph-name="tray-tower" unicode="&#xe80d;" d="M785 698c-22 42-65 69-112 69h-346c-47 0-90-27-112-69l-90-181v-459c0-57 47-104 104-104h542c57 0 104 47 104 104v459l-90 181z m-514-28c11 21 32 34 56 34h346c24 0 45-13 56-34l76-153h-222c0-15-4-30-11-42-4-8-10-15-17-21-15-13-34-21-55-21s-40 8-55 21c-7 6-12 13-17 21-7 12-11 27-11 42h-222l76 153z m542-612c0-23-19-41-42-41h-542c-23 0-41 18-41 41v134c12-5 26-9 41-9h169c26-25 62-41 102-41s76 16 102 41h169c15 0 29 4 42 9v-134z m0 230c0-23-19-42-42-42h-199c-4-8-10-15-17-21-15-13-34-21-55-21s-40 8-55 21c-7 6-12 13-17 21h-199c-23 0-41 19-41 42v166h180c24-49 74-83 132-83s108 34 132 83h181v-166z" horiz-adv-x="1000" />

<glyph glyph-name="trash" unicode="&#xe80e;" d="M750 621v44c0 22-17 40-39 42l-294 18h-125c-23 0-42-19-42-42v-62s-42-146-42-188c0-17 14-34 42-39v-356c0-35 28-63 63-63h337c33 0 60 25 63 58l25 360c4-1 8-1 12-1 42 0 42 41 42 41 0 42-42 188-42 188z m-62 24v-24h-271v41l271-17z m-375 18h62v-42h-62v42z m337-625h-337v358c84 13 200 58 270 58 40 0 70-14 95-29l-28-387z m33 456c-27 12-60 23-100 23-50 0-109-17-172-34-34-9-69-18-98-24-15-3-28-5-39-5 4 25 13 65 24 104h404c9-31 16-63 21-87-11 7-25 15-40 23z" horiz-adv-x="1000" />

<glyph glyph-name="tray" unicode="&#xe80f;" d="M785 552c-22 42-65 69-112 69h-346c-47 0-90-27-112-69l-90-181v-229c0-58 47-104 104-104h542c57 0 104 46 104 104v229l-90 181z m-514-28c11 21 32 34 56 34h346c24 0 45-13 56-34l76-153h-222c0-25-11-47-28-63-15-13-34-20-55-20s-40 7-55 20c-17 16-28 38-28 63h-222l76 153z m542-382c0-23-19-42-42-42h-542c-23 0-41 19-41 42v166h180c24-49 74-83 132-83s108 34 132 83h181v-166z" horiz-adv-x="1000" />

<glyph glyph-name="bubble" unicode="&#xe810;" d="M521 663c256 0 292-121 292-250s-36-250-292-250c-31 0-60 1-86 4-2 0-4 0-6 0-23 0-44-13-55-33-14-26-26-46-35-61-11 24-26 59-44 110-5 13-13 24-25 32-57 37-82 98-82 197 0 86 19 143 60 181 51 46 142 69 273 69m0 63c-313 0-396-125-396-313 0-108 28-195 111-249 28-80 71-188 97-188 21 0 60 64 96 129 28-3 59-4 92-4 271 0 354 125 354 312s-83 313-354 313h0z" horiz-adv-x="1000" />

<glyph glyph-name="bubbles" unicode="&#xe811;" d="M847 550c-32 32-120 43-181 47-7 14-16 26-27 36-50 48-243 50-243 50 0 0-191 0-243-50-70-66-70-216-70-216 0 0 0-117 70-184 9-9 23-16 39-22 0 0 37-111 58-111s80 86 80 86c1 0 2 0 2 0 8-13 18-25 29-36 50-48 243-50 243-50 0 0 22 0 52 2 5 0 9 1 14 1 0 0 59-86 80-86s58 111 58 111c16 6 30 13 39 22 70 67 70 183 70 183 0 0 0 150-70 217z m-517-301c-8 0-16-2-23-5-12-4-22-12-29-22-5-8-10-15-15-22-4 10-8 21-11 31-7 18-20 32-38 39-14 5-18 8-18 8-20 20-33 48-40 75-8 26-10 51-10 64 0 47 14 137 50 171 19 17 114 33 199 33 67-1 139-11 177-22 11-4 20-7 24-11 11-11 21-28 29-51 5-12 8-25 12-39 3-18 6-37 8-56 1-15 1-25 1-25 0-13-3-38-10-64-7-27-20-55-40-74-19-16-115-32-200-33 0 0-9 0-24 0-7 1-15 1-23 2-3 0-5 0-8 0-2 0-4 0-6 1-2 0-3 0-5 0z m474-54s-4-3-18-9c-18-6-31-21-37-38-4-11-8-21-12-31-5 7-10 14-15 21-12 17-31 27-52 27-2 0-3 0-5 0-2 0-4 0-6 0-2 0-5-1-7-1-28-1-47-1-47-1-67 0-139 10-177 21 57 3 174 14 211 49 69 67 69 184 69 184 0 0 0 11-1 30-2 17-4 39-9 64-2 7-4 14-6 22 54-6 100-17 112-28 36-35 50-124 50-171 0-26-9-100-50-139z" horiz-adv-x="1000" />

<glyph glyph-name="hand-thumbsup" unicode="&#xe812;" d="M771 454h-78c-13 0-23 13-20 26l37 147c10 39-20 77-61 77h-67c-25 0-47-14-57-36l-81-173c-18-27-42-49-70-65l-103-59h-83c-35 0-63-28-63-63v-250c0-34 28-62 63-62h503c37 0 71 19 89 51l65 108c20 32 30 69 30 107v88c0 58-47 104-104 104z m-583-396v250h83v-250h-83z m625 204c0-27-8-52-21-75l-65-108c-8-13-21-21-36-21h-358v277l42 23 30 17c36 21 68 51 91 85l3 4 2 5 81 173h67l-36-147c-7-25-1-51 15-71 16-21 40-32 65-32h78c23 0 42-19 42-42v-88z" horiz-adv-x="1000" />

<glyph glyph-name="square-user" unicode="&#xe814;" d="M500 496c34 0 63-33 63-73s-29-73-63-73-62 33-62 73 28 73 62 73m0-313c100 0 138-12 153-22 5-4 14-10 14-58 0-1 0-2 0-3h-333s0 2 0 3c0 48 8 54 14 58 14 10 52 22 152 22m0 375c-69 0-125-60-125-135s56-135 125-135 125 60 125 135-56 135-125 135h0z m0-312c-198 0-229-43-229-143 0-32 12-53 40-65h379c28 12 39 33 39 65 0 100-30 143-229 143h0z m234 354c13 0 24-2 35-6 9-4 16-9 23-15 13-11 21-26 21-42v-375c0-34-36-62-79-62h-468c-43 0-78 28-78 62v376c0 15 7 30 20 42 7 5 15 10 24 14 10 4 22 6 34 6h468m0 62h-468c-21 0-40-3-58-10-15-7-29-15-41-26-26-23-42-54-42-89v-375c0-69 63-125 141-125h468c78 0 141 56 141 125v376c0 34-16 66-42 88-11 11-26 19-41 26-18 7-37 11-58 11h0z" horiz-adv-x="1000" />

<glyph glyph-name="user" unicode="&#xe815;" d="M500 704c69 0 125-65 125-146s-56-145-125-145-125 65-125 145 56 146 125 146m0-500c271 0 271-49 271-146 0-30 0-62-271-62s-271 32-271 62c0 97 0 146 271 146m0 563c-103 0-187-94-187-209s84-208 187-208 188 93 188 208-84 209-188 209h0z m0-500c-289 0-333-63-333-209 0-104 89-125 333-125s333 21 333 125c0 146-44 209-333 209h0z" horiz-adv-x="1000" />

<glyph glyph-name="users" unicode="&#xe816;" d="M629 701c57-13 100-72 100-143s-43-129-100-143c-14-23-31-45-51-63 9-1 17-2 26-2 104 0 188 93 188 208s-84 209-188 209c-9 0-17-1-26-3 20-18 37-39 51-63z m108-441c24-19 42-42 54-71 84-21 84-65 84-131 0-19 0-39-69-51-7-28-21-51-40-68 123 11 172 42 172 119 0 120-30 183-201 202z m-320 444c69 0 125-65 125-146s-56-145-125-145-125 65-125 145 56 146 125 146m0 63c-104 0-188-94-188-209s84-208 188-208 187 93 187 208-84 209-187 209h0z m0-563c271 0 271-49 271-146 0-30 0-62-271-62s-271 32-271 62c0 97 0 146 271 146m0 63c-289 0-334-63-334-209 0-104 89-125 334-125s333 21 333 125c0 146-44 209-333 209h0z" horiz-adv-x="1000" />

<glyph glyph-name="people" unicode="&#xe817;" d="M729 558c0-6 0-12-1-18 14-13 22-33 22-55 0-40-28-72-62-72-1 0-1 0-2 0-13-20-29-38-47-53 15-6 31-10 49-10 69 0 125 60 125 135 0 62-38 114-90 130 4-18 6-37 6-57z m-416-208c17 0 33 4 48 10-18 15-34 33-47 53 0 0-1 0-1 0-35 0-63 32-63 73 0 22 9 41 22 54-1 7-1 13-1 19 0 19 2 38 6 56-52-16-89-68-89-129 0-75 56-136 125-136z m375-42c-33 0-60-1-84-3 105-8 174-30 216-72 9-3 16-6 20-9 5-4 12-9 14-41 10-24 17-52 19-84 31 13 44 33 44 66 0 100-31 143-229 143z m-542-125c2 32 9 37 14 41 4 3 11 6 20 9 43 42 111 64 216 72-24 2-51 3-83 3-199 0-230-43-230-143 0-33 14-53 44-66 3 32 9 60 20 84z m354 521c69 0 125-65 125-146s-56-145-125-145-125 65-125 145 56 146 125 146m0-500c271 0 271-49 271-146 0-30 0-62-271-62s-271 32-271 62c0 97 0 146 271 146m0 563c-103 0-187-94-187-209s84-208 187-208 188 93 188 208-84 209-188 209h0z m0-500c-289 0-333-63-333-209 0-104 89-125 333-125s333 21 333 125c0 146-44 209-333 209h0z" horiz-adv-x="1000" />

<glyph glyph-name="face" unicode="&#xe818;" d="M354 329c36 0 63-27 63-62s-27-63-63-63-62 27-62 63 27 62 62 62z m292 0c35 0 62-27 62-62s-27-63-62-63c-36 0-63 27-63 63s27 62 63 62z m-146 375c329 0 333-269 333-271v-83c0-25 11-42 19-52 0-4 2-15 2-31 0-40-8-59-10-63-4 0-6 0-11 0-14 0-27-4-37-12-17-13-25-32-25-50-4-32-98-146-271-146s-267 117-271 146c0 18-8 37-23 48-12 10-25 14-39 14-4 0-7 0-9 0-4 4-12 23-12 63 0 16 2 27 2 31 8 8 19 25 19 52v83c0 2 4 271 333 271m0 63c-333 0-396-250-396-334v-83c0-21-21 0-21-83 0-113 50-125 73-125 7 0 11 0 11 0 0-63 125-209 333-209s333 146 333 209c0 0 5 0 11 0 23 0 73 12 73 125 0 83-21 62-21 83v83c0 84-63 334-396 334 0 0 0 0 0 0z m365-396c0 17-13 29-30 31-18 8-64 79-100 150-6 13-20 19-35 17-15-4-25-17-25-31v-55c-125-4-306 5-350 46-4 4-4 6-4 9 0 14-11 27-23 29-15 4-27-2-35-15-36-62-92-129-119-129-17 0-31-15-31-31s14-32 31-32c56 0 110 67 146 119 87-69 362-58 418-56 9 0 17 4 21 10 40-62 73-93 102-93 19 0 34 14 34 31z" horiz-adv-x="1000" />
</font>
</defs>
</svg>
