<?xml version="1.0" encoding="UTF-8"?>
<svg id="_レイヤー_2" data-name="レイヤー 2" xmlns="http://www.w3.org/2000/svg" viewBox="0 0 48 48">
  <defs>
    <style>
      .cls-1 {
        fill: #0071bc;
      }

      .cls-2 {
        fill: #2e3192;
      }
    </style>
  </defs>
  <path class="cls-1" d="M12.89,33v2.25c0,1.75-1.32,3.19-3.01,3.36l.5-5.61h2.51Z"/>
  <path class="cls-1" d="M18.44,33v3.18c-1.29-.46-2.22-1.72-2.22-3.18h2.22Z"/>
  <path class="cls-1" d="M40.67,25.12v4.5H7.33v-3.94l2.22,.75,3.33,1.11,2.8,.95h8.31v-3.38h-7.78l-6.51-2.19c1.06-7.65,7.56-13.56,15.4-13.56,3.12,0,6.03,.93,8.47,2.54,4.27,2.81,7.09,7.68,7.09,13.21Z"/>
  <path class="cls-2" d="M40.67,25.12v4.5h-7.78s3.33,0,3.33-9c0-4.37-1.23-7.05-2.64-8.71,4.27,2.81,7.09,7.68,7.09,13.21Z"/>
  <path d="M40.67,14.28c-2.22-3.26-5.41-5.79-9.16-7.15-2-.73-4.16-1.12-6.4-1.12s-4.39,.39-6.38,1.12c-5.29,1.91-9.5,6.16-11.4,11.52-.37,1.02-.64,2.09-.83,3.19l-.28-.09-2.22,2.25v9h3.03l-.81,9h3.33c1.36,0,2.61-.42,3.66-1.12,.96-.63,1.74-1.52,2.28-2.54,1.12,.9,2.53,1.42,4.07,1.42h2.22v-6.75h22.22v-7.88c0-4.04-1.23-7.76-3.33-10.85ZM12.89,35.25c0,1.75-1.32,3.19-3.01,3.36l.5-5.61h2.51v2.25Zm5.56,.93c-1.29-.46-2.22-1.72-2.22-3.18h2.22v3.18Zm22.22-6.56H7.33v-3.94l2.22,.75,3.33,1.11,2.8,.95h8.31v-3.38h-7.78l-6.51-2.19c1.06-7.65,7.56-13.56,15.4-13.56,3.12,0,6.03,.93,8.47,2.54,4.27,2.81,7.09,7.68,7.09,13.21v4.5Z"/>
</svg>