<?xml version="1.0" encoding="utf-8"?>
<!-- Generator: Adobe Illustrator 27.0.0, SVG Export Plug-In . SVG Version: 6.00 Build 0)  -->
<svg version="1.1" id="layer_2" xmlns="http://www.w3.org/2000/svg" xmlns:xlink="http://www.w3.org/1999/xlink" x="0px" y="0px" viewBox="0 0 48 48" style="enable-background:new 0 0 48 48;" xml:space="preserve">
<style type="text/css">
	.st0{fill:#65a30d;}
	.st1{fill:#3f6212;}
</style>
<path class="st0" d="M12.9,33v2.2c0,1.8-1.3,3.2-3,3.4l0.5-5.6C10.4,33,12.9,33,12.9,33z"/>
<polygon class="st0" points="40.7,25.1 40.7,29.6 40.7,29.6 "/>
<path class="st0" d="M40.7,29.6H7.3v-3.9l2.2,0.8l3.3,1.1l2.8,1H23c0.5,0,1-0.5,1-1v-1.4c0-0.5-0.5-1-1-1h-6.8L9.7,23
	c1.1-7.6,7.6-13.6,15.4-13.6c3.1,0,6,0.9,8.5,2.5c4.3,2.8,7.1,7.7,7.1,13.2L40.7,29.6L40.7,29.6z"/>
<path class="st1" d="M40.7,25.1v4.5h-7.8c0,0,3.3,0,3.3-9c0-4.4-1.2-7.1-2.6-8.7C37.9,14.7,40.7,19.6,40.7,25.1z"/>
<path d="M40.7,14.3c-2.2-3.3-5.4-5.8-9.2-7.2c-2-0.7-4.2-1.1-6.4-1.1c-2.2,0-4.4,0.4-6.4,1.1C13.4,9,9.2,13.3,7.3,18.7
	c-0.4,1-0.6,2.1-0.8,3.2l-0.3-0.1l-1.4,1.4c-0.5,0.5-0.8,1.2-0.8,2V30c0,1.7,1.3,3,3,3l-0.5,5.7c-0.2,1.8,1.2,3.3,3,3.3
	c1.4,0,2.6-0.4,3.7-1.1c1-0.6,1.7-1.5,2.3-2.5c1.1,0.9,2.5,1.4,4.1,1.4c0.6,0,1.2-0.2,1.6-0.7c0.4-0.4,0.7-1,0.7-1.6V33H41
	c1.7,0,3-1.3,3-3v-4.9C44,21.1,42.8,17.4,40.7,14.3z M12.9,35.2c0,1.8-1.3,3.2-3,3.4l0.5-5.6h2.5V35.2z M18.5,36.2
	C18.5,36.2,18.4,36.2,18.5,36.2c-1.3-0.6-2.2-1.7-2.2-3.2h2.2V36.2z M40.7,29.6H7.3v-3.9l2.2,0.8l3.3,1.1l2.8,1H23c0.5,0,1-0.5,1-1
	v-1.4c0-0.5-0.5-1-1-1h-6.8L9.7,23c1.1-7.6,7.6-13.6,15.4-13.6c3.1,0,6,0.9,8.5,2.5c4.3,2.8,7.1,7.7,7.1,13.2V29.6z"/>
<path class="st0" d="M18.5,33v3.2c0,0-0.1,0-0.1,0c-1.2-0.5-2.1-1.7-2.1-3.2H18.5z"/>
</svg>
