<?xml version="1.0" encoding="utf-8"?>
<!-- Generator: Adobe Illustrator 27.1.1, SVG Export Plug-In . SVG Version: 6.00 Build 0)  -->
<svg version="1.1" id="a" xmlns="http://www.w3.org/2000/svg" xmlns:xlink="http://www.w3.org/1999/xlink" x="0px" y="0px"
	 viewBox="0 0 112 62" enable-background="new 0 0 112 62" xml:space="preserve">
<path d="M16.4,19.4c-0.4-0.1-0.7-0.2-1.1-0.3c-0.3-0.1-0.6-0.2-0.9-0.4l0.2-0.8h5.5L20,18.7c-0.3,0.1-0.6,0.3-0.9,0.4
	s-0.7,0.2-1,0.3L9,36.6L7.7,37L4.8,19.4c-0.4-0.1-0.7-0.2-1-0.3C3.5,19,3.2,18.8,3,18.7l0.2-0.8h6.6l-0.1,0.8
	c-0.3,0.1-0.6,0.3-1,0.4s-0.8,0.2-1.1,0.3l1.8,12.2l0.1,2.1l0,0l0.9-2.2L16.4,19.4z M17.2,31.7c0-0.9,0.1-1.9,0.4-3
	c0.3-1,0.7-2,1.3-2.8s1.3-1.6,2.1-2.1c0.8-0.6,1.8-0.8,2.9-0.8c1.3,0,2.3,0.4,2.9,1.3c0.7,0.9,1,2.1,1,3.8c0,1.2-0.2,2.3-0.5,3.4
	c-0.3,1.1-0.8,2-1.3,2.8c-0.6,0.8-1.2,1.5-2,2S22.3,37,21.4,37c-1.3,0-2.3-0.4-3-1.3C17.6,34.7,17.2,33.4,17.2,31.7z M23.4,24.1
	c-0.8,0-1.5,0.3-2,0.9c-0.5,0.5-0.9,1.2-1.2,2c-0.3,0.8-0.5,1.7-0.6,2.6s-0.2,1.8-0.2,2.6c0,1,0.2,1.9,0.6,2.6c0.4,0.7,1,1,1.7,1
	c0.6,0,1.1-0.2,1.6-0.7s0.8-1.1,1.2-1.9s0.6-1.6,0.7-2.6c0.2-1,0.3-2,0.3-3s-0.2-1.9-0.5-2.5C24.7,24.5,24.2,24.1,23.4,24.1z
	 M31,24.8l-1.6-0.2v-0.7c0.1-0.1,0.2-0.2,0.4-0.3c0.2-0.1,0.4-0.2,0.7-0.3c0.2-0.1,0.5-0.2,0.8-0.3c0.2,0,0.5,0,0.7,0
	c0.3,0,0.6,0.1,0.8,0.3c0.2,0.2,0.3,0.4,0.4,0.7l2.1,9.3l0.1,1.6l0,0l0.6-1.6c0.2-0.5,0.4-1,0.7-1.6c0.2-0.6,0.4-1.2,0.7-1.8
	c0.2-0.6,0.4-1.2,0.6-1.8c0.2-0.6,0.3-1.1,0.5-1.6c0-0.2,0-0.5-0.1-0.8c0-0.3-0.1-0.6-0.1-1c0-0.3-0.1-0.6-0.1-0.9s-0.1-0.5-0.1-0.6
	c0.2-0.1,0.5-0.2,0.7-0.2c0.3-0.1,0.5-0.1,0.8-0.1c0.5,0,0.9,0.1,1.3,0.3c-0.5,2.2-1.2,4.4-2.1,6.6c-0.9,2.2-1.9,4.5-2.9,6.7
	c-0.9,1.9-1.8,3.3-2.7,4.2s-1.9,1.4-3,1.4c-0.2,0-0.5,0-0.7-0.1s-0.5-0.2-0.7-0.3c0-0.2,0-0.4,0-0.7c0-0.2,0.1-0.5,0.2-0.7
	c0.1-0.3,0.2-0.5,0.4-0.7c0.2-0.2,0.4-0.4,0.6-0.5l2,1.1c0.1-0.1,0.3-0.2,0.4-0.4c0.2-0.2,0.4-0.4,0.6-0.7c0.2-0.3,0.4-0.7,0.6-1.1
	c0.2-0.4,0.4-0.9,0.6-1.5L31,24.8z M48.8,31.4c-0.2,0.6-0.5,1.3-0.8,2s-0.7,1.3-1.1,1.8c-0.4,0.5-0.9,1-1.4,1.3S44.4,37,43.9,37
	c-1.7,0-2.6-1.3-2.6-4c0-1.2,0.2-2.5,0.5-3.6c0.3-1.2,0.8-2.2,1.4-3.2c0.6-0.9,1.4-1.7,2.3-2.2c0.9-0.6,1.9-0.8,3.1-0.8
	c0.4,0,0.7,0,1,0.1c0.2,0.1,0.5,0.2,0.9,0.4c0.7-0.4,1.4-0.6,2.1-0.6l-2.2,12.2h1.8V36c-0.3,0.3-0.7,0.5-1.2,0.7S50.1,37,49.6,37
	s-0.8-0.1-1-0.3s-0.3-0.5-0.3-0.7c0-0.3,0.1-0.8,0.2-1.6C48.5,33.4,48.6,32.5,48.8,31.4L48.8,31.4z M44.8,35.3
	c0.4,0,0.9-0.2,1.3-0.7c0.4-0.5,0.9-1,1.3-1.6c0.4-0.6,0.8-1.3,1.1-2s0.6-1.3,0.7-1.7l0.8-4.6c-0.2-0.2-0.5-0.3-0.7-0.4
	s-0.5-0.1-0.9-0.1c-0.8,0-1.5,0.3-2.1,0.8s-1.2,1.2-1.6,2c-0.4,0.8-0.8,1.7-1,2.7s-0.4,1.9-0.4,2.9c0,0.9,0.1,1.6,0.3,2.1
	C44,35.1,44.3,35.3,44.8,35.3z M60.4,23c0.8,0,1.4,0.1,2,0.3c0.5,0.2,0.9,0.4,1.2,0.7c0.1-0.1,0.3-0.3,0.6-0.4s0.5-0.3,0.8-0.4
	s0.6-0.2,0.9-0.3c0.3-0.1,0.6-0.2,0.8-0.3c0,0.1,0.1,0.2,0.1,0.4c0,0.2,0,0.4,0,0.6s0,0.4-0.1,0.7c-0.1,0.2-0.1,0.4-0.3,0.6
	l-2.6-0.2c0,0.2,0.1,0.3,0.1,0.5s0.1,0.4,0.1,0.7c0,0.7-0.1,1.4-0.4,2c-0.3,0.6-0.7,1.1-1.1,1.6c-0.5,0.4-1,0.8-1.7,1
	c-0.6,0.2-1.3,0.4-2,0.4c-0.3,0-0.5,0-0.7,0s-0.4,0-0.6-0.1c-0.1,0.2-0.4,0.4-0.6,0.6c-0.3,0.2-0.4,0.5-0.4,0.8
	c0,0.3,0.2,0.5,0.5,0.7c0.4,0.2,0.8,0.3,1.4,0.4c0.6,0.1,1.2,0.3,1.8,0.4c0.6,0.2,1.2,0.4,1.8,0.6c0.6,0.3,1,0.6,1.4,1
	s0.5,1,0.5,1.6c0,0.8-0.2,1.6-0.7,2.3c-0.4,0.7-1,1.2-1.7,1.7S60,41.7,59,42c-0.9,0.3-1.9,0.4-2.8,0.4c-0.8,0-1.4-0.1-2-0.3
	s-1-0.4-1.3-0.7s-0.6-0.6-0.8-1s-0.2-0.8-0.2-1.2c0-0.5,0.1-1,0.3-1.4s0.5-0.8,0.8-1.2s0.7-0.7,1.2-1.1c0.4-0.3,0.9-0.6,1.4-0.9
	c-0.2-0.1-0.5-0.3-0.6-0.6c-0.2-0.2-0.2-0.5-0.2-0.8s0.1-0.5,0.2-0.8c0.2-0.3,0.4-0.6,0.6-0.8c0.2-0.3,0.4-0.5,0.7-0.7
	c0.2-0.2,0.4-0.3,0.5-0.4c-0.2-0.1-0.4-0.2-0.6-0.3c-0.2-0.1-0.4-0.3-0.6-0.6c-0.2-0.2-0.3-0.5-0.4-0.8c-0.1-0.3-0.2-0.6-0.2-1
	c0-0.7,0.1-1.3,0.4-1.9c0.3-0.6,0.7-1.1,1.1-1.5c0.5-0.4,1-0.7,1.7-1C59,23.1,59.7,23,60.4,23z M57.6,41.1c0.5,0,1-0.1,1.5-0.2
	c0.5-0.2,1-0.4,1.4-0.7s0.7-0.7,1-1.1c0.3-0.4,0.4-0.9,0.4-1.5c0-0.5-0.2-0.9-0.6-1.2c-0.4-0.3-0.9-0.5-1.5-0.7s-1.2-0.3-1.8-0.4
	c-0.6-0.1-1.2-0.3-1.6-0.4c-0.8,0.6-1.3,1.2-1.6,1.9s-0.4,1.3-0.4,1.8c0,0.8,0.3,1.4,0.9,1.9C55.8,40.9,56.6,41.1,57.6,41.1z
	 M60.2,24c-0.5,0-0.9,0.1-1.3,0.3s-0.7,0.5-1,0.8s-0.5,0.7-0.6,1.2c-0.1,0.4-0.2,0.9-0.2,1.4c0,0.7,0.2,1.2,0.6,1.5
	c0.4,0.3,0.8,0.5,1.3,0.5s0.9-0.1,1.3-0.3c0.4-0.2,0.7-0.4,0.9-0.8c0.2-0.3,0.4-0.7,0.5-1.1s0.2-0.8,0.2-1.3c0-0.7-0.1-1.2-0.4-1.6
	C61.3,24.2,60.8,24,60.2,24z M75.4,34.3c-0.1,0.3-0.4,0.7-0.6,1c-0.3,0.3-0.6,0.6-1,0.9c-0.4,0.3-0.8,0.5-1.3,0.6
	C72,37,71.5,37,71,37c-1.4,0-2.4-0.4-3.2-1.3c-0.7-0.8-1.1-2-1.1-3.5c0-1.3,0.2-2.5,0.5-3.6s0.8-2.1,1.4-2.9s1.3-1.5,2.2-2
	c0.9-0.5,1.8-0.7,2.8-0.7c0.8,0,1.5,0.2,2.1,0.7c0.6,0.4,0.9,1.1,0.9,1.9c0,1.3-0.6,2.3-1.8,3c-1.2,0.7-3.1,1.2-5.7,1.4
	C69,30.3,69,30.6,69,30.9s0,0.6,0,0.8c0,1.1,0.3,1.9,0.8,2.6s1.2,1,2.2,1c0.3,0,0.6-0.1,0.9-0.2c0.3-0.1,0.6-0.2,0.9-0.4
	s0.5-0.3,0.7-0.5s0.4-0.3,0.6-0.5L75.4,34.3z M72.8,24.1c-0.7,0-1.4,0.4-2,1.1s-1.1,1.9-1.6,3.6c1.6-0.1,2.9-0.3,3.8-0.9
	c0.9-0.5,1.3-1.3,1.3-2.2c0-0.4-0.1-0.7-0.3-1C73.8,24.3,73.4,24.1,72.8,24.1z M84.5,24.9c-0.4,0.2-0.9,0.6-1.5,1.3
	c-0.5,0.7-1,1.7-1.4,2.9l-1.5,7.5H78l2.3-11.8l-1.5-0.2v-0.7c0.6-0.3,1.2-0.5,1.8-0.7c0.6-0.2,1.2-0.3,1.7-0.3l0.5,0.3L82,26.8h0.1
	c0.5-1.2,1.1-2.1,1.8-2.8c0.7-0.7,1.4-1.1,2.2-1.1c0.2,0,0.4,0,0.6,0.1c0.2,0,0.4,0.1,0.6,0.3c0,0.2,0,0.4-0.1,0.6
	c0,0.3-0.1,0.5-0.2,0.8s-0.2,0.5-0.3,0.8c-0.1,0.2-0.2,0.4-0.3,0.5L84.5,24.9z M83.6,18c1.6-4.4,3.2-6.9,5.6-8.9
	C91.9,6.9,94.8,6,97.9,6c6.6,0,11.1,5.5,11.1,12.5c0,5-2.1,8.4-10.2,17.3L86,50v0.4h12.3c4,0,5.4-1.1,7-4.8l1.2,0.5l-3.4,9.9H79
	v-1.3l14.3-16.6c4.5-5.2,7.6-9.8,9.2-13.8c0.4-1,0.6-2.4,0.6-4c0-5.1-2.7-8.9-8.1-8.9c-4.1,0-7.6,2.1-10,7.1L83.6,18L83.6,18z"/>
<g>
	<path d="M13.7,50.2c1.5-1,2.6-3,2.9-4.9c-0.1,0-0.2,0-0.2,0c-0.6,0-1.8,0.2-2.6,0.4c0,0-0.1,0-0.1,0c-0.1,0-0.2,0-0.4-0.2
		c0,0.1,0,0.1,0,0.2v0.2l0,0.4c0,0.2,0,0.4,0,0.5c0,0.2,0,0.3,0,0.4c0,0.3-0.1,0.5-0.3,0.5c-0.2,0-0.4-0.2-0.5-0.4
		c-0.1-0.1-0.1-0.3-0.1-0.4c0-0.1,0-0.1,0.1-0.2c0.1-0.2,0.1-0.4,0.1-0.7c0-0.6-0.2-0.9-0.6-1.2c0.1,0,0.1,0,0.2,0
		c0.2,0,0.6,0.2,1,0.5c0.1,0,0.1,0,0.3,0c0.2,0,0.5-0.1,1-0.2c0-0.1,0-0.2,0-0.3c0-0.9-0.1-1-0.6-1.3c0.1-0.1,0.2-0.1,0.3-0.1
		c0.3,0,0.6,0.1,0.9,0.2c0.3,0.1,0.4,0.2,0.4,0.4c0,0.1,0,0.1-0.1,0.2c-0.1,0.2-0.2,0.3-0.2,0.8c0.4,0,0.8-0.1,1.1-0.1
		c0.2,0,0.3,0,0.4-0.1c0,0,0.1-0.1,0.2-0.1c0.1,0,0.3,0.1,0.6,0.3c0.2,0.2,0.3,0.3,0.3,0.5c0,0.1,0,0.2-0.1,0.2
		c-0.1,0.1-0.1,0.2-0.2,0.5c-0.4,1.3-0.9,2-1.6,2.8C15.3,49.5,14.4,50.1,13.7,50.2L13.7,50.2z M16.8,43.3c0.4,0.1,0.6,0.2,0.9,0.4
		c0.4,0.2,0.5,0.5,0.5,0.7c0,0.2-0.1,0.3-0.2,0.3c-0.1,0-0.2,0-0.3-0.2c-0.2-0.4-0.6-0.8-0.9-1.1L16.8,43.3z M17.7,42.7
		c0.4,0.1,0.7,0.2,0.9,0.4c0.3,0.2,0.5,0.4,0.5,0.6c0,0.2-0.1,0.3-0.2,0.3c-0.1,0-0.1,0-0.3-0.2c-0.3-0.4-0.5-0.7-1-0.9L17.7,42.7z"
		/>
	<path d="M19.2,49.4c0.4-0.3,0.7-0.5,1.2-1c0.6-0.5,1.1-1.1,1.5-1.9c-0.8,0.2-1,0.2-1.4,0.4c-0.1,0-0.1,0-0.2,0
		c-0.2,0-0.4-0.2-0.6-0.4c-0.1-0.2-0.2-0.3-0.2-0.4c0,0,0-0.1,0-0.1c0.2,0.3,0.4,0.4,0.7,0.4c0.2,0,1.1-0.1,2-0.2c0-0.4,0-0.7,0-0.9
		c0-0.2-0.2-0.3-0.6-0.5c0.1-0.1,0.2-0.1,0.3-0.1c0.2,0,0.6,0.1,0.8,0.2c0.2,0.1,0.3,0.2,0.3,0.4c0,0.1,0,0.1-0.1,0.2
		c-0.1,0.1-0.1,0.2-0.1,0.6c0.4,0,0.6-0.1,0.8-0.2c0.1-0.1,0.2-0.1,0.2-0.1c0.1,0,0.3,0.1,0.4,0.2c0.2,0.1,0.2,0.2,0.2,0.3
		c0,0.1-0.1,0.2-0.2,0.2c0,0-0.1,0-0.2,0c-0.3,0-0.3,0-0.5,0c-0.3,0-0.4,0-0.8,0c0,0.6,0.1,1.8,0.1,2.4c0,0.3,0,0.3,0,0.5
		c0,0.2-0.1,0.5-0.2,0.7c-0.1,0.1-0.2,0.2-0.4,0.2c-0.1,0-0.2-0.1-0.3-0.3c-0.1-0.2-0.2-0.3-1.1-0.9l0-0.1c0.4,0.1,0.8,0.2,1.2,0.3
		c0-0.2,0-0.4,0-0.6c0-0.1,0-0.3,0-0.5c0-0.4,0-0.4,0-1c-0.5,0.7-1.1,1.2-1.8,1.7C20.1,49.1,19.8,49.2,19.2,49.4L19.2,49.4z"/>
	<path d="M25.3,48c1-0.6,2-1.4,3-2.4c0.9-0.9,1.3-1.5,1.3-1.8c0-0.2-0.2-0.4-0.5-0.5c0.1,0,0.2,0,0.3,0c0.2,0,0.5,0.1,0.8,0.3
		c0.4,0.2,0.6,0.5,0.6,0.6c0,0.1,0,0.2-0.3,0.4c0,0,0,0-0.5,0.5c-0.6,0.5-0.6,0.5-1.1,1c0.3,0.2,0.5,0.4,0.6,0.5
		c0.1,0.1,0.1,0.2,0.1,0.8c0,0.4,0,0.5,0.1,2c0,0.1,0,0.2,0,0.3c0,0.3-0.1,0.5-0.3,0.5c-0.3,0-0.7-0.5-0.7-0.8c0-0.1,0-0.1,0-0.3
		c0.1-0.3,0.2-1.2,0.2-2.1c0-0.4,0-0.5-0.1-0.7c-0.7,0.5-1.2,0.9-1.7,1.1C26.4,47.7,25.8,47.9,25.3,48L25.3,48z"/>
	<path d="M32.4,45.6c0.7,0.1,1.3,0.2,1.6,0.4c0.2,0.2,0.3,0.3,0.3,0.6c0,0.3-0.2,0.6-0.4,0.6c-0.1,0-0.2,0-0.3-0.3
		C33.2,46.3,32.9,46,32.4,45.6L32.4,45.6z M38.9,45.3c-0.8,1.4-2.3,2.8-4.2,4c-0.4,0.3-0.6,0.4-0.7,0.5c-0.1,0.1-0.2,0.1-0.2,0.1
		c-0.4,0-1.1-0.9-1.1-1.4c0-0.1,0-0.1,0.1-0.2c0.2,0.3,0.5,0.6,0.7,0.6c0.2,0,0.9-0.3,1.7-0.8C36.5,47.2,37.8,46.2,38.9,45.3
		L38.9,45.3z M33.3,44.1c0.8,0.1,1.3,0.2,1.7,0.5c0.2,0.2,0.3,0.3,0.3,0.6c0,0.3-0.2,0.6-0.4,0.6c-0.1,0-0.2,0-0.3-0.3
		C34.2,44.8,33.7,44.4,33.3,44.1L33.3,44.1z M36.7,43.6c0.4,0.1,0.6,0.2,0.9,0.4c0.4,0.2,0.5,0.5,0.5,0.7c0,0.2-0.1,0.3-0.2,0.3
		c-0.1,0-0.2,0-0.3-0.2c-0.2-0.4-0.6-0.8-0.9-1.1L36.7,43.6z M37.5,43c0.4,0.1,0.7,0.2,0.9,0.4c0.3,0.2,0.5,0.4,0.5,0.6
		c0,0.2-0.1,0.3-0.2,0.3c-0.1,0-0.1,0-0.3-0.2c-0.3-0.4-0.5-0.7-1-0.9L37.5,43z"/>
	<path d="M43.3,47.6c0.4-0.4,0.7-0.9,0.9-1.2c0.1-0.1,0.1-0.2,0.1-0.3c0,0,0,0-0.1,0c-0.1,0-1.2,0.3-1.8,0.5
		c0.2,0.9,0.3,1.2,0.7,2.8c0,0.2,0.1,0.3,0.1,0.3c0,0.2-0.1,0.3-0.3,0.3c-0.3,0-0.7-0.5-0.7-0.7c0,0,0,0,0,0c0,0,0-0.1,0-0.1
		c0-0.4-0.2-1.5-0.4-2.4c-0.5,0.2-0.7,0.3-0.9,0.4c-0.1,0.1-0.2,0.1-0.2,0.1c-0.3,0-0.8-0.6-0.8-0.9c0,0,0-0.1,0-0.1
		c0.2,0.2,0.4,0.3,0.6,0.3c0.2,0,0.5-0.1,1.2-0.3c-0.3-1.1-0.4-1.3-1-1.4c0.1-0.1,0.2-0.2,0.5-0.2c0.3,0,0.6,0.1,0.8,0.1
		c0.1,0.1,0.2,0.2,0.2,0.3c0,0,0,0,0,0.1c0,0,0,0.2,0,0.2c0,0.1,0,0.4,0.1,0.6c0.1,0,0.1,0,0.8-0.2c0.7-0.2,0.8-0.2,1-0.4
		c0.1-0.1,0.2-0.1,0.2-0.1c0.1,0,0.3,0.1,0.6,0.4c0.2,0.2,0.3,0.3,0.3,0.4c0,0.1,0,0.2-0.3,0.2c-0.1,0-0.1,0.1-0.3,0.2
		C44.4,47.1,43.7,47.5,43.3,47.6L43.3,47.6z"/>
	<path d="M47.3,46.1c0.2,0.1,0.4,0.2,0.8,0.2c0.3,0,1.8,0,3.2-0.1c0.1,0,0.7,0,0.9,0c0.8,0,1,0,1.2,0.1c0.1,0.1,0.1,0.1,0.1,0.2
		c0,0.2-0.2,0.3-0.5,0.4c-0.4,0.1-1.2,0.1-3.6,0.1c-0.4,0-0.4,0-1,0c-0.2,0-0.2,0-0.4,0.1c-0.1,0-0.2,0.1-0.3,0.1
		c-0.2,0-0.4-0.2-0.6-0.5c-0.2-0.3-0.3-0.6-0.3-0.8c0-0.1,0-0.2,0.1-0.3C47.1,46,47.2,46,47.3,46.1z"/>
	<path d="M54.5,49.5c0.1-0.6,0.2-1.1,0.5-1.6c0.3-0.5,0.7-0.8,1.6-1.6c0.4-0.3,0.5-0.5,0.7-0.7c0.1-0.2,0.2-0.5,0.2-0.7
		c0-0.7-0.4-1.2-0.9-1.2c-0.4,0-0.6,0.2-0.7,0.5c-0.1,0.2-0.1,0.3-0.1,0.7c0,0.3-0.2,0.4-0.5,0.4c-0.4,0-0.6-0.1-0.6-0.4
		c0-0.4,0.2-0.8,0.7-1.1c0.4-0.2,0.8-0.4,1.3-0.4c1.2,0,1.9,0.6,1.9,1.5c0,0.4-0.1,0.7-0.4,1c-0.2,0.2-0.5,0.4-0.9,0.7
		c-1.1,0.6-1.3,0.8-1.7,1.1c-0.3,0.3-0.5,0.5-0.6,0.9h2.3c0.7,0,0.9-0.2,1-0.9l0.3,0.1l-0.3,1.7H54.5z"/>
</g>
</svg>
