<?xml version="1.0" encoding="utf-8"?>
<!-- Generator: Adobe Illustrator 27.1.1, SVG Export Plug-In . SVG Version: 6.00 Build 0)  -->
<svg version="1.1" id="a" xmlns="http://www.w3.org/2000/svg" xmlns:xlink="http://www.w3.org/1999/xlink" x="0px" y="0px"
	 viewBox="0 0 112 84" style="enable-background:new 0 0 112 84;" xml:space="preserve">
<style type="text/css">
	.st0{font-family:'PTSerif-Italic';}
	.st1{font-size:26.18px;}
</style>
<text transform="matrix(0.95 0 0 1 3 48.2798)" class="st0 st1">Voyager</text>
<path d="M83.6,27.9c1.6-4.4,3.2-6.9,5.6-8.9c2.7-2.2,5.6-3.1,8.7-3.1c6.6,0,11.1,5.5,11.1,12.5c0,5-2.1,8.4-10.2,17.4L86,60v0.4
	h12.3c4,0,5.4-1.1,7-4.8l1.2,0.5l-3.4,9.9H79v-1.3l14.3-16.6c4.5-5.2,7.6-9.9,9.2-13.9c0.4-1,0.6-2.4,0.6-4c0-5.1-2.7-9-8.1-9
	c-4.1,0-7.6,2.1-10,7.1L83.6,27.9L83.6,27.9z"/>
</svg>
