<svg  xmlns="http://www.w3.org/2000/svg" xmlns:xlink="http://www.w3.org/1999/xlink" x="0px" y="0px" viewBox="0 0 400 200" style="enable-background:new 0 0 400 200;" xml:space="preserve">
	<style type="text/css">
		.st0{fill:#EC4444;}
	</style>
	<path class="st0" d="M341,19.3c6.1,0,11.7,1,17,3c5.2,2,9.8,4.7,13.7,8.1s6.9,7.4,9,11.9s3.2,9.4,3.2,14.6c0,5.8-0.6,10.9-1.8,15.5
		c-1.2,4.6-3.3,9-6.1,13.2c-2.9,4.2-6.7,8.6-11.5,13s-10.7,9.3-17.6,14.8c-4.1,3.2-8.2,6.2-12.4,9.1c-4.2,2.9-8.3,5.9-12.3,8.9
		s-7.9,6.3-11.7,9.7c-3.8,3.4-7.4,7.2-10.7,11.5h67.8l-6.8,28.2h-105c1.4-9.6,3.7-17.8,7.1-24.8c3.3-7,7.5-13.3,12.4-19
		s10.5-11,16.7-15.9s13-10.2,20.3-15.8c6.8-5.3,12.6-9.9,17.4-13.8s8.6-7.4,11.6-10.7c3-3.3,5.1-6.3,6.5-9.2c1.4-2.9,2-5.9,2-9.1
		c0-3.9-1.4-7.2-4.2-9.9s-6.4-4-10.8-4c-6.2,0-12.3,1.3-18.2,4c-5.9,2.7-12.4,6.6-19.4,11.9l-11.6-24.8c9.1-7.4,18.2-12.7,27.3-15.7
		C321.8,20.8,331.2,19.3,341,19.3L341,19.3z"/>
	<path d="M165.3,154.4c1.6,0.4,3.4,1.1,4.6,1.7l-1,2c-1.2-0.6-3.1-1.4-4.6-1.8L165.3,154.4z"/>
	<path d="M178.4,148.4c0.7,0.7,1.6,1.7,2.1,2.5l-1.1,0.8c-0.5-0.7-1.4-1.9-2.1-2.5L178.4,148.4z"/>
	<path d="M196,155.9h15v2.3h-14.3c-0.1,0.2-0.4,0.3-0.6,0.3L196,155.9z"/>
	<path d="M27.4,128.9c-1.2-6.4-2.4-13.1-3.5-19.9c-1.1-6.9-2.1-13.7-3.1-20.5s-1.9-13.5-2.6-20c-0.8-6.5-1.4-12.5-2-18.2h18.9
	c0.2,4.3,0.5,8.9,0.8,13.9c0.3,4.9,0.7,9.9,1.2,15c0.5,5,0.9,10,1.4,15c0.5,4.9,1,9.6,1.5,13.9c2.3-3.9,4.9-8.2,7.5-12.9
	c2.7-4.7,5.4-9.6,8.2-14.6c2.8-5.1,5.5-10.2,8.2-15.3c2.7-5.1,5.2-10.1,7.4-14.8h18.8c-2.9,5.4-6,11.3-9.4,17.6s-7.1,12.8-10.9,19.5
	s-8,13.6-12.4,20.6s-8.9,14-13.7,20.9L27.4,128.9L27.4,128.9z M105.6,90.9c-0.6-1.9-1.6-3.5-2.8-4.9s-2.8-2.4-4.7-3.2
	c-1.9-0.8-4.1-1.2-6.6-1.2c-3.4,0-6.5,0.7-9.1,2.2c-2.6,1.5-4.9,3.4-6.7,5.7s-3.2,4.9-4.1,7.8c-0.9,2.8-1.4,5.7-1.4,8.6
	c0,2.3,0.3,4.4,0.9,6.3c0.6,1.9,1.6,3.5,2.8,4.9c1.2,1.4,2.7,2.4,4.6,3.2c1.8,0.8,4.1,1.2,6.6,1.2c3.5,0,6.6-0.7,9.3-2.2
	c2.7-1.5,4.9-3.4,6.7-5.7c1.7-2.3,3.1-5,4-7.8c0.9-2.8,1.4-5.7,1.4-8.6C106.5,94.9,106.2,92.8,105.6,90.9z M95.3,103.1
	c-0.4,1.7-1,3.2-1.8,4.6c-0.8,1.4-1.8,2.6-3,3.5c-1.2,0.9-2.6,1.4-4.2,1.4c-2,0-3.4-0.7-4.2-2c-0.8-1.4-1.2-3.3-1.2-5.7
	c0-1.5,0.2-3,0.6-4.7s1-3.2,1.8-4.6c0.8-1.4,1.8-2.6,3-3.5c1.2-0.9,2.6-1.4,4.2-1.4c2,0,3.4,0.7,4.2,2c0.8,1.4,1.2,3.3,1.2,5.7
	C95.9,99.9,95.7,101.4,95.3,103.1z M149.8,82.7c-1.3,3.7-2.7,7.1-4.1,10.2s-2.8,6.2-4.3,9c-1.5,2.9-3,5.6-4.6,8.2s-3.3,5.2-5,7.7
	c-1.3,1.9-2.6,3.8-4,5.7c-1.4,1.9-2.9,3.7-4.6,5.2s-3.6,2.8-5.7,3.7c-2.1,1-4.5,1.4-7.2,1.4c-1.7,0-3.1-0.2-4.3-0.5
	s-2.3-0.7-3.4-1.3l3.2-8.4c1,0.4,1.8,0.7,2.6,0.9s1.7,0.3,2.8,0.3c1.7,0,3.3-0.5,4.8-1.6s2.8-2.5,3.8-4.4
	c-1.2-4.8-2.4-10.2-3.4-16.1s-1.7-12.7-2.1-20.2h11c0.1,1.9,0.1,3.9,0.3,6.2c0.1,2.3,0.3,4.5,0.5,6.8s0.4,4.5,0.7,6.7
	s0.5,4.1,0.8,5.8c2.3-3.5,4.3-7.3,6.1-11.5s3.4-8.9,4.9-14L149.8,82.7L149.8,82.7z M183.1,104.2l4.7-19.9c-1.4-0.7-2.9-1.2-4.4-1.6
	c-1.5-0.4-3-0.6-4.4-0.8c-1.4-0.1-2.6-0.2-3.7-0.3c-1.1-0.1-1.9-0.1-2.3-0.1c-3.3,0-6.4,0.6-9.2,1.9c-2.8,1.3-5.3,3-7.4,5.2
	c-2.1,2.2-3.7,4.8-4.9,7.7c-1.2,3-1.8,6.1-1.8,9.4c0,2.2,0.3,4.2,0.7,6.1c0.4,1.9,1.2,3.6,2.3,5c1.1,1.4,2.5,2.6,4.2,3.4
	c1.8,0.9,3.8,1.3,6.2,1.3c2,0,3.8-0.4,5.5-1.1c1.7-0.7,3.2-1.6,4.5-2.7c0.2,0.7,0.5,1.3,0.7,1.8c0.2,0.6,0.5,1.1,0.8,1.7l9.6-1.4
	c-0.9-2.2-1.4-4.6-1.7-7.4C182.2,109.7,182.4,106.9,183.1,104.2z M172.7,102.2c-0.3,1.1-0.4,2.3-0.7,3.6s-0.4,2.6-0.5,3.8
	c-1,1-1.9,1.7-2.8,2.2c-0.9,0.5-1.9,0.7-3,0.7c-2,0-3.4-0.7-4.2-2c-0.7-1.4-1.1-3.2-1.1-5.5c0-1.9,0.3-3.6,0.9-5.4
	c0.6-1.8,1.4-3.3,2.5-4.6c1.1-1.3,2.3-2.4,3.7-3.2s3-1.2,4.6-1.2c0.7,0,1.3,0.1,1.8,0.1s1.1,0.1,1.7,0.2L172.7,102.2z M223.3,82.4
	c-2.2-0.5-4.5-0.7-6.8-0.7c-3.2,0-6.2,0.5-9.1,1.4c-2.9,0.9-5.5,2.3-7.7,4.2c-2.3,1.8-4.1,4.2-5.4,7s-2,6-2,9.7c0,2,0.3,3.9,0.8,5.6
	c0.5,1.7,1.3,3.2,2.3,4.4s2.4,2.2,4,2.9c1.6,0.7,3.5,1,5.8,1c1.2,0,2.3-0.1,3.4-0.4c1.1-0.3,2.1-0.7,3.1-1.2l-0.3,1.4
	c-0.5,2.2-1.6,3.9-3.1,5.3s-3.8,2.1-6.9,2.1c-2.3,0-4.3-0.2-5.9-0.7s-3.1-1-4.6-1.7l-3.6,8.5c1.7,0.9,3.6,1.6,5.6,2.1
	s4.6,0.8,7.6,0.8c3.3,0,6.2-0.3,8.6-1.1c2.4-0.8,4.5-1.9,6.3-3.4c1.8-1.5,3.2-3.4,4.4-5.7c1.1-2.3,2.1-5,2.8-8.1l7.3-31.2
	C227.8,83.6,225.5,82.9,223.3,82.4z M214,107.2c-1,0.9-2,1.5-3.1,1.7c-1.1,0.3-2,0.4-2.7,0.4c-1,0-1.8-0.2-2.5-0.5s-1.2-0.7-1.6-1.3
	c-0.4-0.5-0.7-1.1-0.8-1.9c-0.1-0.7-0.2-1.5-0.2-2.4c0-1.8,0.2-3.4,0.8-5c0.6-1.6,1.4-2.9,2.4-4c1-1.1,2.3-1.9,3.7-2.6
	c1.4-0.7,3.1-1,4.9-1c1.2,0,2.2,0.1,3,0.3L214,107.2z M266.6,87.7c-0.6-1.3-1.4-2.4-2.5-3.3c-1.1-0.9-2.3-1.6-3.8-2.1
	s-3-0.7-4.7-0.7c-3.4,0-6.5,0.7-9.3,2.1c-2.8,1.4-5.2,3.2-7.2,5.4c-2,2.3-3.5,4.9-4.6,7.7s-1.6,5.8-1.6,8.9c0,2.1,0.3,4.2,1,6.1
	c0.6,1.9,1.5,3.6,2.8,5c1.3,1.4,3,2.6,5,3.4c2,0.9,4.5,1.3,7.5,1.3c2.4,0,4.8-0.3,6.8-0.7c2-0.4,3.8-0.9,5.1-1.4l-0.8-8.4
	c-1.4,0.5-2.9,0.9-4.5,1.2c-1.6,0.3-3.2,0.4-4.7,0.4c-2.5,0-4.3-0.5-5.4-1.3c-1.1-0.9-1.9-2.3-2.2-4.3c3.5,0,6.7-0.2,9.6-0.8
	c2.9-0.6,5.5-1.4,7.6-2.6c2.1-1.2,3.8-2.7,5-4.6c1.2-1.8,1.8-4.1,1.8-6.8C267.5,90.5,267.2,89,266.6,87.7z M257.3,95.4
	c-0.3,0.7-1,1.3-2,1.9c-1,0.6-2.4,1.1-4.2,1.5c-1.8,0.5-4.2,0.7-7.2,0.8c0.5-2.8,1.7-5.1,3.6-6.9c1.8-1.7,4-2.6,6.4-2.6
	c2.6,0,3.9,1.2,3.9,3.3C257.8,94.1,257.6,94.7,257.3,95.4z M297.9,91.9c-1-0.2-1.9-0.5-2.8-0.7s-2.3-0.3-4.1-0.3
	c-0.7,0-1.4,0.1-2.2,0.2c-0.8,0.1-1.5,0.2-2,0.4l-7,29.1h-10.7l8.6-35.9c2.1-0.7,4.4-1.3,7-1.9s5.5-0.9,8.7-0.9c1.2,0,2.5,0.1,4,0.3
	c1.5,0.2,2.8,0.6,3.9,1L297.9,91.9L297.9,91.9z M128.8,148.6c0.7,0.7,1.5,1.8,1.8,2.5l-1.2,0.7c-0.3-0.7-1.2-1.9-1.7-2.6
	L128.8,148.6z M131.7,148.3c0.7,0.8,1.4,1.8,1.8,2.5l-1.1,0.7c-0.3-0.7-1.2-1.8-1.7-2.5L131.7,148.3z M123.6,149.2l2.9,0.2
	c0,0.2-0.2,0.4-0.6,0.5v2.6h3.7l0.4-0.2l2,0.8c0,0.1-0.1,0.2-0.3,0.3c-1.1,6.5-3.6,9.9-9.2,11.9c-0.3-0.5-1-1.4-1.5-1.9
	c5-1.7,7.3-4.5,7.9-8.8h-8.3v3.8h-2.3v-5.9h5.3C123.6,152.5,123.6,149.2,123.6,149.2z M146.7,157.2h-3.9l0.1,5.8
	c0,1.9-1.1,2.2-4.1,2.2c-0.1-0.5-0.2-1.2-0.4-1.7h2.1c0.3,0,0.5-0.3,0.6-0.6v-4.2c-1.3,1.6-3.3,3.2-5.2,4.4c-0.3-0.5-0.8-1-1.3-1.4
	c2.1-1.1,4.1-2.7,5.5-4.5h-4.9v-1.8h5.8v-3l2.3,0.1c0,0.2-0.1,0.3-0.4,0.3v2.6h3.9v1.8L146.7,157.2L146.7,157.2z M163.4,151
	c-0.1,0.1-0.3,0.2-0.6,0.2c-1.4,1.4-3.2,2.8-4.9,4.1c0.2,0.1,0.4,0.1,0.6,0.2c-0.1,0.2-0.2,0.3-0.5,0.3v9.4h-2.4v-8.5
	c-1.6,1.1-4,2.4-6,3.4c-0.3-0.5-0.9-1.3-1.4-1.7c4.7-2.1,10.1-5.8,12.9-9L163.4,151z M165.8,162.8c5.5-1.7,9.6-4.6,12-10
	c0.5,0.4,1.5,1.2,2,1.5c-2.4,5.1-6.9,8.6-12,10.3c0,0.2-0.1,0.4-0.3,0.5L165.8,162.8z M167.5,150c1.6,0.5,3.4,1.1,4.6,1.8l-1.1,1.9
	c-1.3-0.7-3-1.4-4.5-1.9L167.5,150z M175.7,149.4c0.7,0.6,1.6,1.7,2.1,2.5l-1.1,0.8c-0.4-0.7-1.4-1.9-2.1-2.6L175.7,149.4z
	 M193.5,155.7c-0.1,0.1-0.2,0.1-0.3,0.2c-0.8,1.8-1.9,3.5-3.2,4.9c-0.4-0.3-1-0.8-1.5-1c0.8-0.8,1.7-2.1,2.2-3l-3.7,0.8l1.6,7.3
	l-1.8,0.4l-1.6-7.3l-3.7,0.8l-0.4-1.7l3.7-0.8l-0.8-3.6l2.4-0.3c0,0.2-0.1,0.3-0.4,0.4l0.7,3l5.2-1.1l0.2-0.1L193.5,155.7z
	 M216.9,152c1.1-1.1,2.5-1.8,4.7-1.8c2.9,0,4.6,1.7,4.6,4.2c0,2.4-1.8,4.2-4.1,6.2l-1.4,1.1l0,0h5.8v2.4h-10.1v-1.7l1.8-1.5
	c3.4-2.9,5.1-4.5,5.1-6.2c0-1.2-0.9-2.1-2.2-2.1c-1,0-2.1,0.5-3,1.4L216.9,152z"/>
</svg>
