<?xml version="1.0" encoding="utf-8"?>
<!-- Generator: Adobe Illustrator 27.2.0, SVG Export Plug-In . SVG Version: 6.00 Build 0)  -->
<svg version="1.1" xmlns="http://www.w3.org/2000/svg" xmlns:xlink="http://www.w3.org/1999/xlink" x="0px" y="0px"
	 viewBox="0 0 56 56" style="enable-background:new 0 0 56 56;" xml:space="preserve">
<style type="text/css">
	.st0{fill:none;}
	.st1{clip-path:url(#SVGID_00000048498188788817373480000012573579932050681492_);}
	.st2{fill:none;stroke:#000000;stroke-width:0.25;stroke-miterlimit:10;}
	.st3{opacity:0.4;}
	
		.st4{clip-path:url(#SVGID_00000142883609374145158780000017687179133266200766_);fill:none;stroke:#000000;stroke-width:0.25;stroke-miterlimit:10;}
	.st5{clip-path:url(#SVGID_00000142883609374145158780000017687179133266200766_);}
	.st6{display:none;}
	.st7{display:inline;}
	.st8{opacity:0.2;}
	.st9{fill:#FFFFFF;}
</style>
<symbol  id="material_x5F_system_x5F_icon_x5F_border" viewBox="0 -48 48 48">
	<rect y="-48" class="st0" width="48" height="48"/>
</symbol>
<symbol  id="material_x5F_system_x5F_icon_x5F_grid" viewBox="0 -48 48 48">
	<g>
		<defs>
			<rect id="SVGID_1_" x="0" y="-48" width="48" height="48"/>
		</defs>
		<clipPath id="SVGID_00000040543559675655965670000008950313091262772919_">
			<use xlink:href="#SVGID_1_"  style="overflow:visible;"/>
		</clipPath>
		<g style="clip-path:url(#SVGID_00000040543559675655965670000008950313091262772919_);">
			<g>
				<line class="st2" x1="2" y1="-48" x2="2" y2="0"/>
				<line class="st2" x1="4" y1="-48" x2="4" y2="0"/>
				<line class="st2" x1="6" y1="-48" x2="6" y2="0"/>
				<line class="st2" x1="8" y1="-48" x2="8" y2="0"/>
				<line class="st2" x1="10" y1="-48" x2="10" y2="0"/>
				<line class="st2" x1="12" y1="-48" x2="12" y2="0"/>
				<line class="st2" x1="14" y1="-48" x2="14" y2="0"/>
				<line class="st2" x1="16" y1="-48" x2="16" y2="0"/>
				<line class="st2" x1="18" y1="-48" x2="18" y2="0"/>
				<line class="st2" x1="20" y1="-48" x2="20" y2="0"/>
				<line class="st2" x1="22" y1="-48" x2="22" y2="0"/>
				<line class="st2" x1="24" y1="-48" x2="24" y2="0"/>
				<line class="st2" x1="26" y1="-48" x2="26" y2="0"/>
				<line class="st2" x1="28" y1="-48" x2="28" y2="0"/>
				<line class="st2" x1="30" y1="-48" x2="30" y2="0"/>
				<line class="st2" x1="32" y1="-48" x2="32" y2="0"/>
				<line class="st2" x1="34" y1="-48" x2="34" y2="0"/>
				<line class="st2" x1="36" y1="-48" x2="36" y2="0"/>
				<line class="st2" x1="38" y1="-48" x2="38" y2="0"/>
				<line class="st2" x1="40" y1="-48" x2="40" y2="0"/>
				<line class="st2" x1="42" y1="-48" x2="42" y2="0"/>
				<line class="st2" x1="44" y1="-48" x2="44" y2="0"/>
				<line class="st2" x1="46" y1="-48" x2="46" y2="0"/>
			</g>
			<g>
				<line class="st2" x1="0" y1="-2" x2="48" y2="-2"/>
				<line class="st2" x1="0" y1="-4" x2="48" y2="-4"/>
				<line class="st2" x1="0" y1="-6" x2="48" y2="-6"/>
				<line class="st2" x1="0" y1="-8" x2="48" y2="-8"/>
				<line class="st2" x1="0" y1="-10" x2="48" y2="-10"/>
				<line class="st2" x1="0" y1="-12" x2="48" y2="-12"/>
				<line class="st2" x1="0" y1="-14" x2="48" y2="-14"/>
				<line class="st2" x1="0" y1="-16" x2="48" y2="-16"/>
				<line class="st2" x1="0" y1="-18" x2="48" y2="-18"/>
				<line class="st2" x1="0" y1="-20" x2="48" y2="-20"/>
				<line class="st2" x1="0" y1="-22" x2="48" y2="-22"/>
				<line class="st2" x1="0" y1="-24" x2="48" y2="-24"/>
				<line class="st2" x1="0" y1="-26" x2="48" y2="-26"/>
				<line class="st2" x1="0" y1="-28" x2="48" y2="-28"/>
				<line class="st2" x1="0" y1="-30" x2="48" y2="-30"/>
				<line class="st2" x1="0" y1="-32" x2="48" y2="-32"/>
				<line class="st2" x1="0" y1="-34" x2="48" y2="-34"/>
				<line class="st2" x1="0" y1="-36" x2="48" y2="-36"/>
				<line class="st2" x1="0" y1="-38" x2="48" y2="-38"/>
				<line class="st2" x1="0" y1="-40" x2="48" y2="-40"/>
				<line class="st2" x1="0" y1="-42" x2="48" y2="-42"/>
				<line class="st2" x1="0" y1="-44" x2="48" y2="-44"/>
				<line class="st2" x1="0" y1="-46" x2="48" y2="-46"/>
			</g>
			<g>
				<path d="M47.8-0.2v-47.5H0.2v47.5H47.8 M48,0H0v-48h48V0L48,0z"/>
			</g>
		</g>
	</g>
</symbol>
<symbol  id="material_x5F_system_x5F_icon_x5F_keylines" viewBox="0 -48 48 48">
	<g class="st3">
		<defs>
			<rect id="SVGID_00000102531491630959740530000008887755690996734874_" x="0" y="-48" class="st3" width="48" height="48"/>
		</defs>
		<clipPath id="SVGID_00000055708773985791095370000010739253935234067109_">
			<use xlink:href="#SVGID_00000102531491630959740530000008887755690996734874_"  style="overflow:visible;"/>
		</clipPath>
		
			<line style="clip-path:url(#SVGID_00000055708773985791095370000010739253935234067109_);fill:none;stroke:#000000;stroke-width:0.25;stroke-miterlimit:10;" x1="24" y1="0" x2="24" y2="-48"/>
		
			<line style="clip-path:url(#SVGID_00000055708773985791095370000010739253935234067109_);fill:none;stroke:#000000;stroke-width:0.25;stroke-miterlimit:10;" x1="48" y1="-24" x2="0" y2="-24"/>
		
			<line style="clip-path:url(#SVGID_00000055708773985791095370000010739253935234067109_);fill:none;stroke:#000000;stroke-width:0.25;stroke-miterlimit:10;" x1="48" y1="-16" x2="0" y2="-16"/>
		
			<line style="clip-path:url(#SVGID_00000055708773985791095370000010739253935234067109_);fill:none;stroke:#000000;stroke-width:0.25;stroke-miterlimit:10;" x1="48" y1="-32" x2="0" y2="-32"/>
		
			<line style="clip-path:url(#SVGID_00000055708773985791095370000010739253935234067109_);fill:none;stroke:#000000;stroke-width:0.25;stroke-miterlimit:10;" x1="32" y1="-48" x2="32" y2="0"/>
		
			<line style="clip-path:url(#SVGID_00000055708773985791095370000010739253935234067109_);fill:none;stroke:#000000;stroke-width:0.25;stroke-miterlimit:10;" x1="16" y1="-48" x2="16" y2="0"/>
		
			<line style="clip-path:url(#SVGID_00000055708773985791095370000010739253935234067109_);fill:none;stroke:#000000;stroke-width:0.25;stroke-miterlimit:10;" x1="47.7" y1="-0.3" x2="0.2" y2="-47.8"/>
		
			<line style="clip-path:url(#SVGID_00000055708773985791095370000010739253935234067109_);fill:none;stroke:#000000;stroke-width:0.25;stroke-miterlimit:10;" x1="0.2" y1="-0.3" x2="47.7" y2="-47.8"/>
		
			<path style="clip-path:url(#SVGID_00000055708773985791095370000010739253935234067109_);fill:none;stroke:#000000;stroke-width:0.25;stroke-miterlimit:10;" d="
			M24-14c-5.5,0-10-4.5-10-10c0-5.5,4.5-10,10-10c5.5,0,10,4.5,10,10C34-18.5,29.5-14,24-14z"/>
		
			<path style="clip-path:url(#SVGID_00000055708773985791095370000010739253935234067109_);fill:none;stroke:#000000;stroke-width:0.25;stroke-miterlimit:10;" d="
			M24-4C12.9-4,4-12.9,4-24c0-11.1,8.9-20,20-20c11.1,0,20,8.9,20,20C44-12.9,35.1-4,24-4z"/>
		
			<path style="clip-path:url(#SVGID_00000055708773985791095370000010739253935234067109_);fill:none;stroke:#000000;stroke-width:0.25;stroke-miterlimit:10;" d="
			M38-6H10c-2.2,0-4-1.8-4-4v-28c0-2.2,1.8-4,4-4h28c2.2,0,4,1.8,4,4v28C42-7.8,40.2-6,38-6z"/>
		
			<path style="clip-path:url(#SVGID_00000055708773985791095370000010739253935234067109_);fill:none;stroke:#000000;stroke-width:0.25;stroke-miterlimit:10;" d="
			M40-8H8c-2.2,0-4-1.8-4-4v-24c0-2.2,1.8-4,4-4h32c2.2,0,4,1.8,4,4l0,24C44-9.8,42.2-8,40-8z"/>
		
			<path style="clip-path:url(#SVGID_00000055708773985791095370000010739253935234067109_);fill:none;stroke:#000000;stroke-width:0.25;stroke-miterlimit:10;" d="
			M40-40v32c0,2.2-1.8,4-4,4H12C9.8-4,8-5.8,8-8v-32c0-2.2,1.8-4,4-4h24C38.2-44,40-42.2,40-40z"/>
		<g style="clip-path:url(#SVGID_00000055708773985791095370000010739253935234067109_);">
			<path d="M47.8-0.2v-47.5H0.2v47.5H47.8 M48,0H0v-48h48V0L48,0z"/>
		</g>
	</g>
</symbol>
<g id="Frame" class="st6">
	<g class="st7">
		<circle id="circle_00000135678747017227783790000017540452499355420863_" class="st8" cx="28" cy="28" r="20"/>
		<path id="Rectangle_00000091717576387785852850000018361040405771682230_" class="st8" d="M44,46H12c-1.1,0-2-0.9-2-2V12
			c0-1.1,0.9-2,2-2h32c1.1,0,2,0.9,2,2v32C46,45.1,45.1,46,44,46z"/>
		<path id="Vertical_Rectangle_00000149355083487661580390000013432881025250754182_" class="st8" d="M14,48h28c1.1,0,2-0.9,2-2V10
			c0-1.1-0.9-2-2-2H14c-1.1,0-2,0.9-2,2v36C12,47.1,12.9,48,14,48z"/>
		<path id="Horizontal_Rectangle_00000129904399224947350550000009867572515349811859_" class="st8" d="M48,42V14c0-1.1-0.9-2-2-2
			H10c-1.1,0-2,0.9-2,2v28c0,1.1,0.9,2,2,2h36C47.1,44,48,43.1,48,42z"/>
		
			<use xlink:href="#material_x5F_system_x5F_icon_x5F_border"  width="48" height="48" id="XMLID_00000100382252571800691240000014536673956883428756_" y="-48" transform="matrix(1 0 0 -1 4 3.9999)" style="overflow:visible;"/>
		
			<use xlink:href="#material_x5F_system_x5F_icon_x5F_grid"  width="48" height="48" id="XMLID_00000023276559980885875430000010173201772765886635_" x="0" y="-48" transform="matrix(1 0 0 -1 4 3.9999)" style="overflow:visible;opacity:0.15;"/>
		
			<use xlink:href="#material_x5F_system_x5F_icon_x5F_keylines"  width="48" height="48" id="XMLID_00000057853241408346071060000010200445529424614790_" x="0" y="-48" transform="matrix(1 0 0 -1 4 3.9999)" style="overflow:visible;"/>
	</g>
</g>
<g id="Body">
	<path d="M48,56H8c-4.4,0-8-3.6-8-8V8c0-4.4,3.6-8,8-8h40c4.4,0,8,3.6,8,8v40C56,52.4,52.4,56,48,56z"/>
	<g>
		<path class="st9" d="M15.2,46c-0.6-2.9-1.1-6-1.6-9.1c-0.5-3.2-1-6.3-1.4-9.4c-0.4-3.1-0.8-6.2-1.2-9.1c-0.3-3-0.6-5.7-0.9-8.3
			h8.7c0.1,2,0.2,4.1,0.4,6.4c0.2,2.3,0.3,4.6,0.5,6.9c0.2,2.3,0.4,4.6,0.7,6.9c0.2,2.3,0.5,4.4,0.7,6.4c1.1-1.8,2.2-3.8,3.4-5.9
			c1.2-2.1,2.5-4.4,3.7-6.7c1.3-2.3,2.5-4.7,3.7-7c1.2-2.4,2.4-4.6,3.4-6.8H44c-1.3,2.5-2.7,5.2-4.3,8.1c-1.6,2.9-3.2,5.9-5,8.9
			c-1.8,3.1-3.7,6.2-5.7,9.4c-2,3.2-4.1,6.4-6.3,9.6H15.2z"/>
	</g>
	<g>
		<path class="st9" d="M41.5,26c0.6,0,1.2,0.1,1.8,0.3c0.6,0.2,1,0.5,1.4,0.8c0.4,0.3,0.7,0.7,0.9,1.2c0.2,0.5,0.3,0.9,0.3,1.4
			c0,0.6-0.1,1.1-0.2,1.5c-0.1,0.5-0.3,0.9-0.6,1.3c-0.3,0.4-0.7,0.9-1.2,1.3s-1.1,0.9-1.9,1.5c-0.4,0.3-0.9,0.6-1.3,0.9
			c-0.4,0.3-0.9,0.6-1.3,0.9c-0.4,0.3-0.8,0.6-1.2,1c-0.4,0.3-0.8,0.7-1.1,1.1h7.2L43.5,42H32.5c0.1-0.9,0.4-1.8,0.7-2.5
			c0.4-0.7,0.8-1.3,1.3-1.9c0.5-0.6,1.1-1.1,1.8-1.6c0.7-0.5,1.4-1,2.1-1.6c0.7-0.5,1.3-1,1.8-1.4c0.5-0.4,0.9-0.7,1.2-1.1
			c0.3-0.3,0.5-0.6,0.7-0.9c0.1-0.3,0.2-0.6,0.2-0.9c0-0.4-0.1-0.7-0.4-1c-0.3-0.3-0.7-0.4-1.1-0.4c-0.7,0-1.3,0.1-1.9,0.4
			c-0.6,0.3-1.3,0.7-2,1.2L35.6,28c1-0.7,1.9-1.3,2.9-1.6C39.5,26.2,40.5,26,41.5,26z"/>
	</g>
</g>
</svg>
