<?xml version="1.0" encoding="utf-8"?>
<!-- Generator: Adobe Illustrator 27.1.1, SVG Export Plug-In . SVG Version: 6.00 Build 0)  -->
<svg version="1.1" id="a" xmlns="http://www.w3.org/2000/svg" xmlns:xlink="http://www.w3.org/1999/xlink" x="0px" y="0px"
	 viewBox="0 0 112 62" style="enable-background:new 0 0 112 62;" xml:space="preserve">
<path d="M16.4,21.4c-0.4-0.1-0.7-0.2-1.1-0.3c-0.3-0.1-0.6-0.2-0.9-0.4l0.2-0.8h5.5l-0.1,0.8c-0.3,0.1-0.6,0.3-0.9,0.4
	c-0.3,0.1-0.7,0.2-1,0.3L9,38.6L7.7,39L4.8,21.4c-0.4-0.1-0.7-0.2-1-0.3C3.5,21,3.2,20.8,3,20.7l0.2-0.8h6.6l-0.1,0.8
	c-0.3,0.1-0.6,0.3-1,0.4c-0.4,0.1-0.8,0.2-1.1,0.3l1.8,12.2l0.1,2.1h0l0.9-2.2L16.4,21.4z M17.2,33.7c0-0.9,0.1-1.9,0.4-3
	c0.3-1,0.7-2,1.3-2.8s1.3-1.6,2.1-2.1c0.8-0.6,1.8-0.8,2.9-0.8c1.3,0,2.3,0.4,2.9,1.3c0.7,0.9,1,2.1,1,3.8c0,1.2-0.2,2.3-0.5,3.4
	c-0.3,1.1-0.8,2-1.3,2.8c-0.6,0.8-1.2,1.5-2,2c-0.8,0.5-1.7,0.7-2.6,0.7c-1.3,0-2.3-0.4-3-1.3C17.6,36.7,17.2,35.4,17.2,33.7z
	 M23.4,26.1c-0.8,0-1.5,0.3-2,0.9c-0.5,0.5-0.9,1.2-1.2,2c-0.3,0.8-0.5,1.7-0.6,2.6c-0.1,0.9-0.2,1.8-0.2,2.6c0,1,0.2,1.9,0.6,2.6
	c0.4,0.7,1,1,1.7,1c0.6,0,1.1-0.2,1.6-0.7c0.5-0.5,0.8-1.1,1.2-1.9s0.6-1.6,0.7-2.6c0.2-1,0.3-2,0.3-3c0-1-0.2-1.9-0.5-2.5
	C24.7,26.5,24.2,26.1,23.4,26.1z M31,26.8l-1.6-0.2v-0.7c0.1-0.1,0.2-0.2,0.4-0.3c0.2-0.1,0.4-0.2,0.7-0.3c0.2-0.1,0.5-0.2,0.8-0.3
	C31.5,25,31.8,25,32,25c0.3,0,0.6,0.1,0.8,0.3c0.2,0.2,0.3,0.4,0.4,0.7l2.1,9.3l0.1,1.6h0l0.6-1.6c0.2-0.5,0.4-1,0.7-1.6
	c0.2-0.6,0.4-1.2,0.7-1.8c0.2-0.6,0.4-1.2,0.6-1.8c0.2-0.6,0.3-1.1,0.5-1.6c0-0.2,0-0.5-0.1-0.8c0-0.3-0.1-0.6-0.1-1
	c0-0.3-0.1-0.6-0.1-0.9c0-0.3-0.1-0.5-0.1-0.6c0.2-0.1,0.5-0.2,0.7-0.2c0.3-0.1,0.5-0.1,0.8-0.1c0.5,0,0.9,0.1,1.3,0.3
	c-0.5,2.2-1.2,4.4-2.1,6.6c-0.9,2.2-1.9,4.5-2.9,6.7c-0.9,1.9-1.8,3.3-2.7,4.2c-0.9,0.9-1.9,1.4-3,1.4c-0.2,0-0.5,0-0.7-0.1
	c-0.2-0.1-0.5-0.2-0.7-0.3c0-0.2,0-0.4,0-0.7c0-0.2,0.1-0.5,0.2-0.7c0.1-0.3,0.2-0.5,0.4-0.7c0.2-0.2,0.4-0.4,0.6-0.5l2,1.1
	c0.1-0.1,0.3-0.2,0.4-0.4c0.2-0.2,0.4-0.4,0.6-0.7c0.2-0.3,0.4-0.7,0.6-1.1c0.2-0.4,0.4-0.9,0.6-1.5L31,26.8z M48.8,33.4
	c-0.2,0.6-0.5,1.3-0.8,2c-0.3,0.7-0.7,1.3-1.1,1.8c-0.4,0.5-0.9,1-1.4,1.3c-0.5,0.3-1.1,0.5-1.6,0.5c-1.7,0-2.6-1.3-2.6-4
	c0-1.2,0.2-2.5,0.5-3.6c0.3-1.2,0.8-2.2,1.4-3.2c0.6-0.9,1.4-1.7,2.3-2.2c0.9-0.6,1.9-0.8,3.1-0.8c0.4,0,0.7,0,1,0.1
	c0.2,0.1,0.5,0.2,0.9,0.4c0.7-0.4,1.4-0.6,2.1-0.6l-2.2,12.2h1.8v0.7c-0.3,0.3-0.7,0.5-1.2,0.7c-0.5,0.2-0.9,0.3-1.4,0.3
	c-0.5,0-0.8-0.1-1-0.3c-0.2-0.2-0.3-0.5-0.3-0.7c0-0.3,0.1-0.8,0.2-1.6C48.5,35.4,48.6,34.5,48.8,33.4L48.8,33.4z M44.8,37.3
	c0.4,0,0.9-0.2,1.3-0.7c0.4-0.5,0.9-1,1.3-1.6c0.4-0.6,0.8-1.3,1.1-2s0.6-1.3,0.7-1.7l0.8-4.6c-0.2-0.2-0.5-0.3-0.7-0.4
	c-0.2-0.1-0.5-0.1-0.9-0.1c-0.8,0-1.5,0.3-2.1,0.8c-0.6,0.5-1.2,1.2-1.6,2c-0.4,0.8-0.8,1.7-1,2.7c-0.2,1-0.4,1.9-0.4,2.9
	c0,0.9,0.1,1.6,0.3,2.1C44,37.1,44.3,37.3,44.8,37.3z M60.4,25c0.8,0,1.4,0.1,2,0.3c0.5,0.2,0.9,0.4,1.2,0.7
	c0.1-0.1,0.3-0.3,0.6-0.4c0.3-0.1,0.5-0.3,0.8-0.4c0.3-0.1,0.6-0.2,0.9-0.3c0.3-0.1,0.6-0.2,0.8-0.3c0,0.1,0.1,0.2,0.1,0.4
	c0,0.2,0,0.4,0,0.6c0,0.2,0,0.4-0.1,0.7c-0.1,0.2-0.1,0.4-0.3,0.6l-2.6-0.2c0,0.2,0.1,0.3,0.1,0.5c0,0.2,0.1,0.4,0.1,0.7
	c0,0.7-0.1,1.4-0.4,2c-0.3,0.6-0.7,1.1-1.1,1.6c-0.5,0.4-1,0.8-1.7,1c-0.6,0.2-1.3,0.4-2,0.4c-0.3,0-0.5,0-0.7,0
	c-0.2,0-0.4,0-0.6-0.1c-0.1,0.2-0.4,0.4-0.6,0.6c-0.3,0.2-0.4,0.5-0.4,0.8c0,0.3,0.2,0.5,0.5,0.7c0.4,0.2,0.8,0.3,1.4,0.4
	c0.6,0.1,1.2,0.3,1.8,0.4c0.6,0.2,1.2,0.4,1.8,0.6c0.6,0.3,1,0.6,1.4,1c0.4,0.4,0.5,1,0.5,1.6c0,0.8-0.2,1.6-0.7,2.3
	c-0.4,0.7-1,1.2-1.7,1.7c-0.7,0.5-1.5,0.8-2.5,1.1c-0.9,0.3-1.9,0.4-2.8,0.4c-0.8,0-1.4-0.1-2-0.3s-1-0.4-1.3-0.7
	c-0.3-0.3-0.6-0.6-0.8-1c-0.2-0.4-0.2-0.8-0.2-1.2c0-0.5,0.1-1,0.3-1.4c0.2-0.4,0.5-0.8,0.8-1.2c0.3-0.4,0.7-0.7,1.2-1.1
	c0.4-0.3,0.9-0.6,1.4-0.9c-0.2-0.1-0.5-0.3-0.6-0.6c-0.2-0.2-0.2-0.5-0.2-0.8c0-0.3,0.1-0.5,0.2-0.8c0.2-0.3,0.4-0.6,0.6-0.8
	c0.2-0.3,0.4-0.5,0.7-0.7c0.2-0.2,0.4-0.3,0.5-0.4c-0.2-0.1-0.4-0.2-0.6-0.3c-0.2-0.1-0.4-0.3-0.6-0.6c-0.2-0.2-0.3-0.5-0.4-0.8
	c-0.1-0.3-0.2-0.6-0.2-1c0-0.7,0.1-1.3,0.4-1.9c0.3-0.6,0.7-1.1,1.1-1.5c0.5-0.4,1-0.7,1.7-1C59,25.1,59.7,25,60.4,25z M57.6,43.1
	c0.5,0,1-0.1,1.5-0.2c0.5-0.2,1-0.4,1.4-0.7s0.7-0.7,1-1.1c0.3-0.4,0.4-0.9,0.4-1.5c0-0.5-0.2-0.9-0.6-1.2c-0.4-0.3-0.9-0.5-1.5-0.7
	c-0.6-0.2-1.2-0.3-1.8-0.4c-0.6-0.1-1.2-0.3-1.6-0.4c-0.8,0.6-1.3,1.2-1.6,1.9c-0.3,0.7-0.4,1.3-0.4,1.8c0,0.8,0.3,1.4,0.9,1.9
	C55.8,42.9,56.6,43.1,57.6,43.1z M60.2,26c-0.5,0-0.9,0.1-1.3,0.3s-0.7,0.5-1,0.8c-0.3,0.3-0.5,0.7-0.6,1.2
	c-0.1,0.4-0.2,0.9-0.2,1.4c0,0.7,0.2,1.2,0.6,1.5c0.4,0.3,0.8,0.5,1.3,0.5c0.5,0,0.9-0.1,1.3-0.3c0.4-0.2,0.7-0.4,0.9-0.8
	c0.2-0.3,0.4-0.7,0.5-1.1c0.1-0.4,0.2-0.8,0.2-1.3c0-0.7-0.1-1.2-0.4-1.6C61.3,26.2,60.8,26,60.2,26z M75.4,36.3
	c-0.1,0.3-0.4,0.7-0.6,1c-0.3,0.3-0.6,0.6-1,0.9c-0.4,0.3-0.8,0.5-1.3,0.6c-0.5,0.2-1,0.2-1.5,0.2c-1.4,0-2.4-0.4-3.2-1.3
	c-0.7-0.8-1.1-2-1.1-3.5c0-1.3,0.2-2.5,0.5-3.6c0.3-1.1,0.8-2.1,1.4-2.9c0.6-0.8,1.3-1.5,2.2-2c0.9-0.5,1.8-0.7,2.8-0.7
	c0.8,0,1.5,0.2,2.1,0.7c0.6,0.4,0.9,1.1,0.9,1.9c0,1.3-0.6,2.3-1.8,3c-1.2,0.7-3.1,1.2-5.7,1.4c-0.1,0.3-0.1,0.6-0.1,0.9
	c0,0.3,0,0.6,0,0.8c0,1.1,0.3,1.9,0.8,2.6c0.5,0.7,1.2,1,2.2,1c0.3,0,0.6-0.1,0.9-0.2c0.3-0.1,0.6-0.2,0.9-0.4s0.5-0.3,0.7-0.5
	c0.2-0.2,0.4-0.3,0.6-0.5L75.4,36.3z M72.8,26.1c-0.7,0-1.4,0.4-2,1.1c-0.6,0.7-1.1,1.9-1.6,3.6c1.6-0.1,2.9-0.3,3.8-0.9
	c0.9-0.5,1.3-1.3,1.3-2.2c0-0.4-0.1-0.7-0.3-1C73.8,26.3,73.4,26.1,72.8,26.1z M84.5,26.9c-0.4,0.2-0.9,0.6-1.5,1.3
	c-0.5,0.7-1,1.7-1.4,2.9l-1.5,7.5H78l2.3-11.8l-1.5-0.2v-0.7c0.6-0.3,1.2-0.5,1.8-0.7c0.6-0.2,1.2-0.3,1.7-0.3l0.5,0.3L82,28.8h0.1
	c0.5-1.2,1.1-2.1,1.8-2.8c0.7-0.7,1.4-1.1,2.2-1.1c0.2,0,0.4,0,0.6,0.1c0.2,0,0.4,0.1,0.6,0.3c0,0.2,0,0.4-0.1,0.6
	c0,0.3-0.1,0.5-0.2,0.8c-0.1,0.3-0.2,0.5-0.3,0.8c-0.1,0.2-0.2,0.4-0.3,0.5L84.5,26.9z M83.6,18c1.6-4.4,3.2-6.9,5.6-8.9
	C91.9,6.9,94.8,6,97.9,6c6.6,0,11.1,5.5,11.1,12.5c0,5-2.1,8.4-10.2,17.3L86,50v0.4h12.3c4,0,5.4-1.1,7-4.8l1.2,0.5l-3.4,9.9H79
	v-1.3l14.3-16.6c4.5-5.2,7.6-9.8,9.2-13.8c0.4-1,0.6-2.4,0.6-4c0-5.1-2.7-8.9-8.1-8.9c-4.1,0-7.6,2.1-10,7.1L83.6,18L83.6,18z
	 M11,52.1c1-0.8,1.9-2.3,2.1-3.8c-0.1,0-0.1,0-0.2,0c-0.5,0-1.3,0.1-1.9,0.3c0,0-0.1,0-0.1,0c-0.1,0-0.1,0-0.3-0.1
	c0,0.1,0,0.1,0,0.1v0.2l0,0.3c0,0.2,0,0.3,0,0.4c0,0.1,0,0.2,0,0.3c0,0.2-0.1,0.4-0.2,0.4c-0.1,0-0.2-0.1-0.4-0.3
	c-0.1-0.1-0.1-0.2-0.1-0.3c0,0,0-0.1,0-0.2c0.1-0.2,0.1-0.3,0.1-0.6c0-0.5-0.1-0.7-0.4-0.9c0.1,0,0.1,0,0.1,0c0.2,0,0.4,0.1,0.7,0.4
	c0.1,0,0.1,0,0.2,0c0.1,0,0.3,0,0.7-0.1c0-0.1,0-0.1,0-0.2c0-0.7,0-0.8-0.4-1c0.1-0.1,0.1-0.1,0.2-0.1c0.2,0,0.4,0.1,0.7,0.1
	c0.2,0.1,0.3,0.2,0.3,0.3c0,0,0,0.1-0.1,0.2c-0.1,0.2-0.1,0.3-0.2,0.6c0.3,0,0.6-0.1,0.7-0.1c0.2,0,0.2,0,0.3-0.1c0,0,0.1,0,0.1,0
	c0.1,0,0.2,0.1,0.4,0.3c0.2,0.2,0.2,0.3,0.2,0.4c0,0.1,0,0.1-0.1,0.2c-0.1,0.1-0.1,0.1-0.2,0.4c-0.3,1-0.6,1.6-1.2,2.2
	C12.1,51.5,11.5,52,11,52.1L11,52.1z M13.2,46.7c0.3,0.1,0.4,0.2,0.6,0.3c0.3,0.2,0.4,0.4,0.4,0.6c0,0.1-0.1,0.2-0.2,0.2
	c-0.1,0-0.1,0-0.2-0.2c-0.2-0.3-0.4-0.6-0.7-0.8L13.2,46.7z M13.8,46.3c0.3,0.1,0.5,0.2,0.7,0.3c0.2,0.2,0.3,0.3,0.3,0.5
	c0,0.1-0.1,0.2-0.2,0.2c-0.1,0-0.1,0-0.2-0.2C14.2,46.8,14,46.6,13.8,46.3L13.8,46.3z M14.9,51.4c0.3-0.2,0.5-0.4,0.8-0.7
	c0.4-0.4,0.8-0.9,1.1-1.4c-0.6,0.1-0.7,0.2-1,0.3c0,0-0.1,0-0.1,0c-0.1,0-0.3-0.1-0.4-0.3c-0.1-0.1-0.1-0.2-0.1-0.3c0,0,0-0.1,0-0.1
	c0.1,0.2,0.3,0.3,0.5,0.3c0.2,0,0.8-0.1,1.4-0.2c0-0.3,0-0.6,0-0.7c0-0.2-0.1-0.3-0.4-0.4c0.1-0.1,0.1-0.1,0.2-0.1
	c0.2,0,0.4,0.1,0.6,0.1c0.2,0.1,0.2,0.2,0.2,0.3c0,0.1,0,0.1-0.1,0.2c0,0.1-0.1,0.2-0.1,0.4c0.2,0,0.4-0.1,0.6-0.1
	c0.1,0,0.1-0.1,0.2-0.1c0.1,0,0.2,0.1,0.3,0.1c0.1,0.1,0.2,0.2,0.2,0.2c0,0.1-0.1,0.2-0.2,0.2c0,0-0.1,0-0.1,0c-0.2,0-0.2,0-0.4,0
	c-0.2,0-0.3,0-0.6,0c0,0.5,0,1.4,0.1,1.8c0,0.2,0,0.3,0,0.4c0,0.2-0.1,0.4-0.1,0.5C17.4,52,17.3,52,17.2,52c-0.1,0-0.2,0-0.2-0.2
	c-0.1-0.2-0.2-0.3-0.7-0.7l0-0.1c0.3,0.1,0.6,0.2,0.8,0.2c0-0.2,0-0.3,0-0.5c0-0.1,0-0.2,0-0.4c0-0.3,0-0.3,0-0.7
	c-0.3,0.5-0.8,1-1.3,1.3C15.5,51.2,15.3,51.3,14.9,51.4L14.9,51.4z M19.2,50.4c0.7-0.4,1.4-1.1,2.1-1.8c0.6-0.7,1-1.2,1-1.4
	c0-0.1-0.1-0.3-0.3-0.4c0.1,0,0.1,0,0.2,0c0.2,0,0.4,0.1,0.6,0.2c0.3,0.2,0.4,0.4,0.4,0.5c0,0.1,0,0.1-0.2,0.3c0,0,0,0-0.4,0.4
	c-0.4,0.4-0.4,0.4-0.8,0.8c0.2,0.1,0.3,0.3,0.4,0.4c0.1,0.1,0.1,0.1,0.1,0.6c0,0.3,0,0.4,0,1.5c0,0.1,0,0.2,0,0.2
	c0,0.3-0.1,0.4-0.2,0.4c-0.2,0-0.5-0.4-0.5-0.6c0-0.1,0-0.1,0-0.2c0.1-0.3,0.1-0.9,0.1-1.6c0-0.3,0-0.4-0.1-0.5
	c-0.5,0.4-0.9,0.7-1.2,0.9C20,50.1,19.6,50.3,19.2,50.4L19.2,50.4z M24.2,48.5c0.5,0,0.9,0.2,1.1,0.3c0.2,0.1,0.2,0.2,0.2,0.5
	c0,0.2-0.1,0.4-0.3,0.4c-0.1,0-0.1,0-0.2-0.2C24.8,49.1,24.6,48.8,24.2,48.5L24.2,48.5z M28.8,48.3c-0.6,1.1-1.6,2.2-3,3.1
	c-0.3,0.2-0.4,0.3-0.5,0.4c0,0-0.1,0.1-0.2,0.1c-0.3,0-0.8-0.7-0.8-1.1c0-0.1,0-0.1,0-0.2c0.1,0.3,0.3,0.4,0.5,0.4
	c0.2,0,0.6-0.2,1.2-0.6C27.2,49.7,28.1,49,28.8,48.3L28.8,48.3z M24.9,47.3c0.6,0.1,0.9,0.2,1.2,0.4c0.2,0.1,0.2,0.2,0.2,0.4
	c0,0.2-0.1,0.4-0.3,0.4c-0.1,0-0.1,0-0.2-0.2C25.5,47.9,25.2,47.6,24.9,47.3L24.9,47.3z M27.3,47c0.3,0.1,0.4,0.2,0.6,0.3
	c0.3,0.2,0.4,0.4,0.4,0.6c0,0.1-0.1,0.2-0.2,0.2c-0.1,0-0.1,0-0.2-0.2c-0.2-0.3-0.4-0.6-0.7-0.8L27.3,47z M27.9,46.5
	c0.3,0.1,0.5,0.2,0.7,0.3c0.2,0.2,0.3,0.3,0.3,0.5c0,0.1-0.1,0.2-0.2,0.2c-0.1,0-0.1,0-0.2-0.2C28.3,47,28.1,46.8,27.9,46.5
	L27.9,46.5z M32,50.1c0.2-0.3,0.5-0.7,0.6-0.9c0-0.1,0.1-0.2,0.1-0.2c0,0,0,0,0,0c-0.1,0-0.8,0.2-1.2,0.4c0.1,0.7,0.2,1,0.5,2.2
	c0,0.1,0,0.2,0,0.3c0,0.1-0.1,0.2-0.2,0.2c-0.2,0-0.5-0.4-0.5-0.6c0,0,0,0,0,0c0,0,0-0.1,0-0.1c0-0.3-0.1-1.2-0.3-1.8
	c-0.3,0.1-0.5,0.2-0.7,0.3c-0.1,0.1-0.1,0.1-0.2,0.1c-0.2,0-0.6-0.4-0.6-0.7c0,0,0,0,0-0.1c0.1,0.2,0.2,0.3,0.4,0.3
	c0.1,0,0.3-0.1,0.9-0.2c-0.2-0.9-0.3-1-0.7-1.1c0.1-0.1,0.2-0.1,0.3-0.1c0.2,0,0.4,0,0.6,0.1c0.1,0,0.2,0.1,0.2,0.2c0,0,0,0,0,0.1
	c0,0,0,0.1,0,0.2c0,0.1,0,0.3,0.1,0.5c0.1,0,0.1,0,0.6-0.2c0.5-0.2,0.6-0.2,0.7-0.3c0.1,0,0.1-0.1,0.2-0.1c0.1,0,0.2,0.1,0.4,0.3
	c0.1,0.1,0.2,0.2,0.2,0.3c0,0.1,0,0.1-0.2,0.2c0,0-0.1,0-0.2,0.1C32.7,49.7,32.3,50,32,50.1L32,50.1z M34.8,48.9
	c0.1,0.1,0.3,0.1,0.6,0.1c0.2,0,1.3,0,2.2,0c0.1,0,0.5,0,0.6,0c0.6,0,0.7,0,0.8,0.1c0,0,0.1,0.1,0.1,0.2c0,0.2-0.1,0.3-0.4,0.3
	c-0.3,0-0.8,0.1-2.5,0.1c-0.3,0-0.3,0-0.7,0c-0.1,0-0.2,0-0.2,0.1c-0.1,0-0.1,0-0.2,0c-0.1,0-0.3-0.1-0.4-0.4
	c-0.1-0.2-0.2-0.5-0.2-0.6c0-0.1,0-0.1,0.1-0.2C34.7,48.8,34.7,48.8,34.8,48.9z M40,51.5c0.1-0.5,0.2-0.9,0.4-1.2
	c0.2-0.4,0.5-0.6,1.1-1.2c0.3-0.2,0.4-0.4,0.5-0.6c0.1-0.2,0.1-0.4,0.1-0.6c0-0.5-0.3-0.9-0.7-0.9c-0.3,0-0.4,0.1-0.5,0.4
	c0,0.2-0.1,0.2-0.1,0.6c0,0.2-0.1,0.3-0.4,0.3c-0.3,0-0.4-0.1-0.4-0.3c0-0.3,0.2-0.6,0.5-0.9c0.3-0.2,0.6-0.3,0.9-0.3
	c0.9,0,1.4,0.4,1.4,1.1c0,0.3-0.1,0.6-0.3,0.8c-0.1,0.2-0.3,0.3-0.6,0.5c-0.7,0.5-0.9,0.6-1.2,0.8c-0.2,0.2-0.3,0.4-0.4,0.7H42
	c0.5,0,0.6-0.2,0.7-0.7l0.2,0l-0.2,1.3H40z"/>
</svg>
