<?xml version="1.0" encoding="utf-8"?>
<!-- Generator: Adobe Illustrator 27.1.1, SVG Export Plug-In . SVG Version: 6.00 Build 0)  -->
<svg version="1.1" id="a" xmlns="http://www.w3.org/2000/svg" xmlns:xlink="http://www.w3.org/1999/xlink" x="0px" y="0px"
	 viewBox="0 0 62 62" enable-background="new 0 0 62 62" xml:space="preserve">
<path d="M30.8,22.3c-0.7-0.2-1.1-0.3-1.8-0.5c-0.5-0.2-1-0.3-1.5-0.6l0.3-1.2h9l-0.2,1.2c-0.5,0.2-1,0.5-1.5,0.6s-1.1,0.3-1.6,0.5
	L18.8,49.2l-2.1,0.6l-4.7-27.4c-0.7-0.2-1.1-0.3-1.6-0.5c-0.5-0.2-1-0.5-1.3-0.6L9.3,20h10.8l-0.2,1.2c-0.5,0.2-1,0.5-1.6,0.6
	c-0.7,0.2-1.3,0.3-1.8,0.5l2.9,19l0.2,3.3l0,0l1.5-3.4L30.8,22.3z M27.5,18c1.6-4.4,3.2-6.9,5.6-8.9C35.9,6.9,38.8,6,41.9,6
	C48.5,6,53,11.5,53,18.5c0,5-2.1,8.4-10.2,17.3L30,50v0.4h12.3c4,0,5.4-1.1,7-4.8l1.2,0.5L47.1,56H22.9v-1.3l14.3-16.6
	c4.5-5.2,7.6-9.8,9.2-13.8c0.4-1,0.6-2.4,0.6-4c0-5.1-2.7-8.9-8.1-8.9c-4.1,0-7.6,2.1-10,7.1L27.5,18L27.5,18z"/>
</svg>
