<?xml version="1.0" encoding="UTF-8"?>
<svg id="a" data-name="レイヤー 1" xmlns="http://www.w3.org/2000/svg" viewBox="0 0 258 120">
  <rect x="12" y="83.78" width="57.95" height="4.01"/>
  <path d="m122.03,87.79h-35.12c.68-.84,1.25-1.79,1.73-2.85l.02-.05.02-.06.43-1.04h30.35l-.39.55,1.94,2.37c.31.38.65.74,1.02,1.08Z"/>
  <path d="m180.89,83.78l-3.81,4.01h-31.22c.92-.82,1.72-1.76,2.38-2.81.24-.39.46-.78.66-1.19h31.99Z"/>
  <polygon points="231 83.78 231 87.79 214.89 87.79 218.36 83.78 231 83.78"/>
  <g>
    <path d="m29.89,68.68l6.8-24.88h9.19l-11.48,34.17h-9l-11.39-34.17h9.12l6.77,24.88Z"/>
    <path d="m45,65.04c0-2.53.49-4.79,1.48-6.77s2.4-3.5,4.24-4.57,4.01-1.6,6.49-1.6c3.8,0,6.79,1.18,8.98,3.53s3.28,5.56,3.28,9.61v.28c0,3.96-1.1,7.1-3.29,9.42s-5.17,3.49-8.92,3.49-6.51-1.08-8.7-3.25-3.37-5.1-3.54-8.81l-.02-1.34Zm7.9.49c0,2.35.37,4.07,1.1,5.16s1.82,1.64,3.26,1.64c2.81,0,4.25-2.17,4.31-6.5v-.8c0-4.55-1.45-6.83-4.36-6.83-2.64,0-4.07,1.96-4.29,5.89l-.02,1.43Z"/>
    <path d="m83.09,66.89l4.22-14.32h8.46l-10.34,29.64-.45,1.08c-1.47,3.29-4.06,4.93-7.78,4.93-1.03,0-2.12-.16-3.26-.47v-5.63h1.03c1.11,0,1.96-.16,2.54-.48.59-.32,1.02-.9,1.3-1.73l.63-1.69-8.81-25.65h8.44l4.01,14.32Z"/>
    <path d="m112.1,77.97c-.28-.52-.53-1.28-.75-2.28-1.45,1.83-3.48,2.75-6.09,2.75-2.39,0-4.42-.72-6.09-2.17s-2.51-3.27-2.51-5.46c0-2.75,1.02-4.84,3.05-6.24s4.98-2.11,8.86-2.11h2.44v-1.34c0-2.34-1.01-3.51-3.02-3.51-1.88,0-2.81.93-2.81,2.78h-7.9c0-2.45,1.04-4.45,3.13-5.98s4.75-2.3,7.98-2.3,5.79.79,7.66,2.37,2.84,3.75,2.88,6.5v11.24c.03,2.33.39,4.12,1.08,5.35v.4h-7.9Zm-4.94-5.16c.98,0,1.8-.21,2.45-.63.65-.42,1.11-.9,1.39-1.43v-4.06h-2.3c-2.75,0-4.12,1.24-4.12,3.71,0,.72.24,1.3.73,1.75s1.1.67,1.85.67Z"/>
    <path d="m122.37,65.08c0-2.57.42-4.84,1.27-6.81s2.05-3.49,3.63-4.57,3.41-1.61,5.51-1.61c2.64,0,4.7.89,6.19,2.68l.28-2.21h7.17v24.43c0,2.24-.52,4.18-1.56,5.83s-2.54,2.92-4.51,3.8-4.25,1.33-6.84,1.33c-1.86,0-3.66-.35-5.4-1.06s-3.07-1.62-4-2.75l3.3-4.65c1.47,1.74,3.41,2.61,5.81,2.61,3.5,0,5.25-1.8,5.25-5.4v-.8c-1.52,1.67-3.43,2.51-5.74,2.51-3.09,0-5.59-1.19-7.5-3.56s-2.86-5.54-2.86-9.52v-.28Zm7.92.49c0,2.08.39,3.73,1.17,4.94s1.88,1.82,3.28,1.82c1.7,0,2.95-.57,3.73-1.71v-10.68c-.77-1.16-1.99-1.74-3.68-1.74-1.41,0-2.51.63-3.3,1.89s-1.2,3.09-1.2,5.48Z"/>
    <path d="m162.17,78.44c-3.89,0-7.04-1.16-9.45-3.49s-3.61-5.35-3.61-9.07v-.66c0-2.6.48-4.89,1.44-6.88s2.36-3.52,4.21-4.61,4.03-1.63,6.56-1.63c3.56,0,6.38,1.11,8.44,3.32s3.09,5.3,3.09,9.26v3.07h-15.7c.28,1.42.9,2.54,1.85,3.36s2.19,1.22,3.7,1.22c2.5,0,4.45-.88,5.86-2.63l3.61,4.27c-.98,1.36-2.38,2.44-4.18,3.25s-3.75,1.21-5.82,1.21Zm-.89-20.23c-2.31,0-3.69,1.53-4.12,4.6h7.97v-.61c.03-1.27-.29-2.25-.96-2.95s-1.63-1.04-2.88-1.04Z"/>
    <path d="m189.31,52.11c.84,0,1.58.09,2.2.28l-.14,7.35-2.6-.19c-2.48,0-4.08.78-4.78,2.35v16.08h-7.9v-25.4h7.41l.26,3.26c1.33-2.49,3.18-3.73,5.55-3.73h0Z"/>
  </g>
  <path d="m246,111.75h-71.44v-15.49l32.91-34.64c8.11-9.25,12.16-16.59,12.16-22.04,0-4.41-.96-7.77-2.88-10.07-1.92-2.3-4.71-3.45-8.37-3.45s-6.54,1.54-8.79,4.61c-2.25,3.08-3.38,6.91-3.38,11.51h-23.77c0-6.29,1.57-12.1,4.71-17.43,3.14-5.33,7.5-9.49,13.08-12.5,5.58-3,11.81-4.51,18.7-4.51,11.06,0,19.58,2.56,25.56,7.68,5.98,5.12,8.96,12.46,8.96,22.04,0,4.04-.75,7.97-2.25,11.79-1.5,3.83-3.83,7.84-7,12.04-3.16,4.2-8.26,9.82-15.29,16.86l-13.22,15.28h40.29v18.31Z"/>
  <g>
    <path d="m42.96,27.21l1.91.11c-.01.13-.14.28-.38.31v1.72h2.44l.28-.11,1.32.53c-.02.07-.1.16-.19.2-.71,4.31-2.42,6.63-6.13,7.95-.2-.35-.7-.95-1.02-1.29,3.33-1.13,4.87-3.03,5.28-5.85h-5.51v2.52h-1.51v-3.96h3.53v-2.14Zm3.51-.4c.44.48.97,1.2,1.22,1.69l-.77.47c-.23-.47-.78-1.26-1.16-1.71l.71-.46Zm1.87-.24c.46.5.96,1.18,1.22,1.68l-.76.47c-.23-.48-.78-1.22-1.16-1.69l.7-.46Z"/>
    <path d="m59.73,32.55h-2.6l.05,3.84c0,1.29-.74,1.45-2.72,1.45-.05-.31-.16-.77-.29-1.12h1.39c.2-.01.36-.19.37-.37l-.02-2.77c-.84,1.06-2.19,2.15-3.45,2.91-.2-.3-.53-.68-.84-.91,1.38-.71,2.71-1.8,3.66-3.03h-3.25v-1.19h3.86l-.02-2.02,1.51.05c-.01.11-.08.2-.28.23l.02,1.74h2.61v1.19Z"/>
    <path d="m72.68,28.39c-.07.1-.19.14-.38.13-.94.91-2.1,1.89-3.24,2.73.13.04.26.1.38.13-.04.11-.14.2-.35.23v6.27h-1.6v-5.64c-1.07.72-2.66,1.61-3.98,2.25-.19-.34-.6-.89-.91-1.17,3.13-1.39,6.73-3.89,8.56-6.03l1.51,1.11Z"/>
    <path d="m75.47,30.64c1.07.28,2.28.72,3.07,1.12l-.65,1.31c-.78-.4-2.04-.9-3.07-1.18l.65-1.25Zm.34,5.6c3.66-1.13,6.37-3.1,8-6.65.3.26.98.78,1.31.98-1.63,3.42-4.57,5.72-8,6.87.02.12-.04.25-.18.32l-1.13-1.53Zm1.1-8.55c1.07.31,2.27.76,3.09,1.19l-.74,1.27c-.84-.47-1.97-.95-3.02-1.27l.67-1.19Zm5.46-.38c.48.43,1.09,1.15,1.42,1.67l-.73.55c-.28-.47-.95-1.3-1.37-1.71l.68-.52Zm1.82-.67c.48.44,1.09,1.17,1.42,1.65l-.72.55c-.3-.48-.95-1.26-1.37-1.67l.67-.53Z"/>
    <path d="m95.98,31.51c-.05.07-.11.1-.19.12-.52,1.23-1.25,2.34-2.15,3.29-.24-.23-.66-.52-1-.7.54-.54,1.16-1.37,1.48-1.99l-2.43.53,1.09,4.88-1.22.25-1.08-4.85-2.43.56-.28-1.13,2.48-.54-.56-2.38,1.57-.17c0,.13-.1.22-.24.29l.44,1.98,3.45-.74.12-.07.95.67Z"/>
    <path d="m98.87,31.63h10.01v1.51h-9.51c-.07.12-.24.2-.41.23l-.1-1.74Z"/>
    <path d="m119.19,37.13h-5.67v-1.09l1.01-1.08c1.71-1.78,2.72-2.94,2.72-4.17,0-.79-.42-1.45-1.42-1.45-.66,0-1.27.35-1.69.66l-.49-1.27c.56-.43,1.5-.82,2.54-.82,1.94,0,2.83,1.24,2.83,2.71,0,1.61-1.09,2.93-2.41,4.26l-.76.74v.02h3.33v1.48Z"/>
  </g>
</svg>