<?xml version="1.0" encoding="utf-8"?>
<!-- Generator: Adobe Illustrator 27.1.1, SVG Export Plug-In . SVG Version: 6.00 Build 0)  -->
<svg version="1.1" id="c" xmlns="http://www.w3.org/2000/svg" xmlns:xlink="http://www.w3.org/1999/xlink" x="0px" y="0px"
	 viewBox="0 0 48 48" style="enable-background:new 0 0 48 48;" xml:space="preserve">
<path d="M38,8H10c-3.3,0-6,2.7-6,6v20c0,3.3,2.7,6,6,6h28c3.3,0,6-2.7,6-6V14C44,10.7,41.3,8,38,8z M10,37c-1.7,0-3-1.3-3-3V14
	c0-1.7,1.3-3,3-3h16v26H10z M41,34c0,1.7-1.3,3-3,3h-9V11h9c1.7,0,3,1.3,3,3V34z M37,14h-4c-0.5,0-1,0.4-1,1s0.5,1,1,1h4
	c0.5,0,1-0.4,1-1S37.5,14,37,14L37,14z M37,18h-4c-0.5,0-1,0.5-1,1s0.5,1,1,1h4c0.5,0,1-0.5,1-1S37.5,18,37,18L37,18z M37,22h-4
	c-0.5,0-1,0.5-1,1s0.5,1,1,1h4c0.5,0,1-0.5,1-1S37.5,22,37,22L37,22z"/>
</svg>
