<?xml version="1.0" encoding="utf-8"?>
<!-- Generator: Adobe Illustrator 27.1.1, SVG Export Plug-In . SVG Version: 6.00 Build 0)  -->
<svg version="1.1" id="a" xmlns="http://www.w3.org/2000/svg" xmlns:xlink="http://www.w3.org/1999/xlink" x="0px" y="0px"
	 viewBox="0 0 493.8 386" style="enable-background:new 0 0 493.8 386;" xml:space="preserve">
<style type="text/css">
	.st0{fill:#C1272D;}
	.st1{fill:#FFFFFF;}
	.st2{fill:#39B54A;}
	.st3{fill:#F7931E;}
	.st4{fill:#F15A24;}
	.st5{fill:none;}
	.st6{fill:#B2B2B2;}
	.st7{fill:#FCE221;}
	.st8{fill:#29ABE2;}
	.st9{fill:#FF7BAC;}
</style>
<path d="M228.2,295.2l3.9,4.1h17.7c0,0,4.6-4.5,3.8-5.7c-1.4-2-4.4-4.4-12.2-4.6c-5.5-0.2-10.5,2.4-12.9,3.9
	C227.7,293.5,227.6,294.5,228.2,295.2L228.2,295.2z"/>
<path class="st0" d="M298.6,347.8l-57.2-5.2l-57.2,5.2c0,0-3.4-33.8,4.7-41.5c9.3-8.9,52.5-9.7,52.5-9.7s43.2,0.8,52.5,9.7
	C302,313.9,298.7,347.8,298.6,347.8L298.6,347.8z"/>
<g>
	<path class="st1" d="M213.4,349.5c-0.8,0-1.6,0-2.3,0c-2.9-0.1-5.6-2.4-6.6-5.6c-1.1-3.5-1.9-6.7-2.4-9.5s-0.7-6.1-0.8-9.8
		c-0.1-3.4,1.7-6.3,4.5-7.4c4-1.5,8.6-2.7,13.6-3.5c4.1-0.7,8.1-1.1,11.7-1.1c0.8,0,1.6,0,2.3,0c2.9,0.1,5.6,2.4,6.6,5.6
		c1.1,3.5,1.9,6.7,2.4,9.5s0.7,6.1,0.8,9.8c0.1,3.4-1.7,6.3-4.5,7.4c-4,1.5-8.6,2.7-13.6,3.5C221,349.2,217.1,349.5,213.4,349.5z"/>
	<path class="st2" d="M231.1,315.1L231.1,315.1c0.8,0,1.5,0,2.2,0c1.9,0.1,3.6,1.6,4.3,3.9c1.1,3.4,1.9,6.5,2.3,9.1s0.7,5.8,0.7,9.4
		c0,2.3-1.1,4.4-2.9,5c-3.8,1.5-8.2,2.6-13.1,3.4l0,0l0,0c-4,0.7-7.8,1-11.3,1c-0.8,0-1.5,0-2.2,0c-1.9-0.1-3.6-1.6-4.3-3.9
		c-1.1-3.4-1.9-6.5-2.3-9.1s-0.7-5.8-0.7-9.4c0-2.3,1.1-4.4,2.9-5c3.8-1.5,8.2-2.6,13.1-3.4l0,0l0,0
		C223.8,315.5,227.6,315.1,231.1,315.1 M231.1,310.1c-3.2,0-7.3,0.3-12.1,1.1c-6.2,1-10.8,2.4-14.1,3.7c-3.7,1.4-6.1,5.4-6,9.8
		c0,3,0.2,6.7,0.8,10.1l0,0c0.6,3.4,1.5,6.9,2.5,9.8c1.4,4.2,4.9,7.1,8.9,7.3c0.8,0,1.5,0,2.4,0c3.2,0,7.3-0.3,12.1-1.1
		c6.2-1,10.8-2.4,14.1-3.7c3.7-1.4,6.1-5.4,6-9.8c0-3-0.2-6.7-0.8-10.1l0,0c-0.6-3.4-1.5-6.9-2.5-9.8c-1.4-4.2-4.9-7.1-8.9-7.3
		C232.8,310.2,232,310.1,231.1,310.1L231.1,310.1z"/>
</g>
<g>
	<path class="st1" d="M261.2,359.6c-3.2,0-6.7-0.3-10.2-0.8c-5.1-0.7-9.7-1.7-13.7-3.2c-2.7-1-4.6-3.9-4.6-7.3c0-3.7,0.1-7,0.5-9.8
		s1.1-6,2.1-9.5c0.9-3.2,3.5-5.5,6.4-5.8c1.2-0.1,2.5-0.1,3.8-0.1c3.2,0,6.7,0.3,10.2,0.8c5.1,0.7,9.7,1.7,13.7,3.2
		c2.7,1,4.6,3.9,4.6,7.3c0,3.7-0.1,7-0.5,9.8v0.1c-0.4,2.8-1.1,6-2.1,9.5c-0.9,3.2-3.5,5.5-6.4,5.8
		C263.8,359.6,262.5,359.6,261.2,359.6L261.2,359.6z"/>
	<path class="st3" d="M245.5,325.7c3.1,0,6.4,0.3,9.9,0.8l0,0l0,0c4.9,0.6,9.3,1.6,13.1,3c1.8,0.6,3,2.6,3,5c0,3.6-0.1,6.7-0.5,9.4
		c-0.4,2.7-1.1,5.8-2.1,9.2c-0.6,2.2-2.4,3.8-4.2,4c-1.2,0.1-2.4,0.1-3.6,0.1c-3.1,0-6.4-0.3-9.9-0.8l0,0l0,0
		c-4.9-0.6-9.3-1.6-13.1-3c-1.8-0.6-3-2.6-3-5c0-3.6,0.1-6.7,0.5-9.4c0.4-2.7,1.1-5.8,2.1-9.2c0.6-2.2,2.4-3.8,4.2-4
		C243,325.8,244.2,325.7,245.5,325.7 M245.5,320.7c-1.5,0-2.8,0-4,0.1c-4,0.3-7.4,3.3-8.7,7.5c-0.9,2.9-1.7,6.5-2.2,9.9l0,0
		c-0.5,3.4-0.6,7.1-0.5,10.1c0,4.4,2.6,8.3,6.3,9.6c3.3,1.2,8,2.5,14.2,3.3c4.1,0.6,7.6,0.8,10.6,0.8c1.5,0,2.8,0,4-0.1
		c4-0.3,7.4-3.3,8.7-7.5c0.9-2.9,1.7-6.5,2.2-9.9l0,0c0.5-3.4,0.6-7.1,0.5-10.1c0-4.4-2.6-8.3-6.3-9.6c-3.3-1.2-8-2.5-14.2-3.3
		C252,320.9,248.4,320.7,245.5,320.7L245.5,320.7z"/>
</g>
<g>
	<path class="st4" d="M296.4,386h-110c0,0-6.7-44,0-46.6c15.8-6.1,21.8-6.7,55-7.8c33.2,1,39.2,1.7,55,7.8
		C303.1,342,296.4,386,296.4,386z"/>
	<rect x="204.5" y="337.2" width="9" height="48.8"/>
	<path d="M205.9,331.7h6.4c1.4,0,2.6,1.2,2.6,2.6v1.2c0,1.4-1.2,2.6-2.6,2.6h-6.4c-1.4,0-2.6-1.2-2.6-2.6v-1.2
		C203.3,332.9,204.4,331.7,205.9,331.7z"/>
	<rect x="241.4" y="331.7" class="st5" width="57.9" height="54.3"/>
	<rect x="269.2" y="337.2" width="9" height="48.8"/>
	<path d="M276.9,338.2h-6.4c-1.4,0-2.6-1.2-2.6-2.6v-1.2c0-1.4,1.2-2.6,2.6-2.6h6.4c1.4,0,2.6,1.2,2.6,2.6v1.2
		C279.6,337,278.4,338.2,276.9,338.2z"/>
</g>
<path d="M241.9,349.8h-1c-1.6,0-3-1.1-3.4-2.6l-2.9-10.8c-0.2-0.8-0.1-1.6,0.2-2.3l1.2-2.8c0.5-1.3,1.8-2.1,3.2-2.1h4.5
	c1.4,0,2.6,0.8,3.2,2.1l1.1,2.5c0.3,0.7,0.4,1.6,0.2,2.3l-2.9,11.2C244.9,348.7,243.5,349.8,241.9,349.8L241.9,349.8z"/>
<g>
	<path class="st1" d="M233.4,226.5c-0.6,0-1.2,0-1.8,0c-11.5,0-22.1-1-31.7-3.1c-7.5-1.6-13.4-8.6-14.7-17.4
		c-1.3-8.8-1.9-16.7-1.9-23.6s0.6-14.8,1.9-23.6s7.2-15.8,14.7-17.4c9.5-2,20.2-3.1,31.7-3.1c0.6,0,1.1,0,1.7,0s1.2,0,1.8,0
		c11.5,0,22.1,1,31.7,3.1c7.5,1.6,13.4,8.6,14.7,17.4c1.3,8.8,1.9,16.7,1.9,23.6s-0.6,14.8-1.9,23.6c-1.3,8.8-7.2,15.7-14.7,17.4
		c-9.5,2-20.2,3.1-31.7,3.1C234.6,226.5,234,226.5,233.4,226.5L233.4,226.5z"/>
	<path class="st6" d="M235.1,142.5c11.2,0,21.6,1,30.8,3c5.9,1.3,10.5,6.9,11.6,14c1.3,8.6,1.9,16.4,1.9,23s-0.6,14.4-1.9,23
		c-1,7.1-5.7,12.8-11.5,14c-9.3,2-19.6,3-30.8,3c-0.5,0-1.1,0-1.6,0h-0.1h-0.1c-0.5,0-1.1,0-1.6,0c-11.2,0-21.6-1-30.8-3
		c-5.9-1.3-10.5-6.9-11.6-14c-1.3-8.6-1.9-16.4-1.9-23s0.6-14.4,1.9-23c1-7.1,5.7-12.8,11.5-14c9.3-2,19.6-3,30.8-3
		c0.5,0,1.1,0,1.6,0h0.1h0.1C234,142.5,234.6,142.5,235.1,142.5 M235.1,134.5c-0.6,0-1.1,0-1.7,0s-1.1,0-1.7,0
		c-13.9,0-24.7,1.5-32.5,3.2c-9.2,2-16.3,10.2-17.8,20.7c-1.1,7.2-2,15.9-2,24.1l0,0c0,8.2,0.9,16.9,2,24.1
		c1.5,10.5,8.6,18.7,17.8,20.7c7.8,1.7,18.6,3.2,32.5,3.2c0.6,0,1.1,0,1.7,0s1.1,0,1.7,0c13.9,0,24.7-1.5,32.5-3.2
		c9.2-2,16.3-10.2,17.8-20.7c1-7.2,2-15.9,2-24.1l0,0c0-8.2-0.9-16.9-2-24.1c-1.5-10.4-8.6-18.7-17.8-20.7
		C259.8,136,249,134.5,235.1,134.5L235.1,134.5L235.1,134.5z"/>
</g>
<g>
	<path class="st1" d="M298.9,111c-0.5,0-0.9,0-1.3,0c-8.2,0-15.8-0.7-22.7-2.1c-5-1-8.9-5.5-9.7-11.1c-0.9-6.1-1.4-11.6-1.4-16.2
		s0.5-10.2,1.4-16.3c0.9-5.6,4.8-10.1,9.7-11.1c6.8-1.4,14.5-2.1,22.7-2.1c0.4,0,0.8,0,1.2,0c0.5,0,0.9,0,1.3,0
		c8.2,0,15.8,0.7,22.7,2.1c5,1,8.9,5.5,9.7,11.1c0.9,6.1,1.4,11.6,1.4,16.2c0,4.7-0.5,10.2-1.4,16.3c-0.9,5.6-4.8,10.1-9.7,11.1
		c-6.8,1.4-14.5,2.1-22.7,2.1C299.7,111,299.3,111,298.9,111z"/>
	<path class="st7" d="M300.1,56c7.9,0,15.3,0.7,21.9,2c3.3,0.7,6,3.8,6.6,7.8c0.9,5.9,1.3,11.2,1.3,15.7s-0.5,9.8-1.3,15.6
		c-0.6,4-3.2,7.1-6.5,7.8c-6.6,1.4-13.9,2-21.9,2c-0.4,0-0.8,0-1.2,0h-0.1h-0.1c-0.4,0-0.8,0-1.2,0c-7.9,0-15.3-0.7-21.9-2
		c-3.3-0.7-6-3.8-6.6-7.8c-0.9-5.9-1.3-11.1-1.3-15.7s0.5-9.8,1.3-15.7c0.6-4,3.2-7.1,6.5-7.8c6.6-1.3,13.9-2,21.9-2
		c0.4,0,0.8,0,1.2,0h0.1h0.1C299.4,56,299.7,56,300.1,56 M300.1,48c-0.4,0-0.8,0-1.2,0c-0.4,0-0.8,0-1.2,0c-10,0-17.9,1-23.5,2.2
		c-6.6,1.4-11.8,7.2-12.9,14.4c-0.8,5-1.4,11.1-1.4,16.8l0,0c0,5.8,0.7,11.8,1.4,16.8c1.1,7.3,6.2,13.1,12.9,14.4
		c5.6,1.2,13.5,2.2,23.5,2.2c0.4,0,0.8,0,1.2,0c0.4,0,0.8,0,1.2,0c10,0,17.9-1,23.5-2.2c6.6-1.4,11.8-7.1,12.9-14.4
		c0.8-5,1.4-11.1,1.4-16.8l0,0c0-5.8-0.7-11.8-1.4-16.8c-1.1-7.3-6.2-13.1-12.9-14.4C318,49,310.2,48,300.1,48L300.1,48z"/>
</g>
<g>
	<path class="st1" d="M145.4,242c-4.8,0-9.3-0.4-13.3-1.3c-3-0.6-5.4-3.5-5.9-7.1c-0.5-3.7-0.8-7-0.8-9.9s0.3-6.2,0.8-9.9
		c0.5-3.6,2.9-6.4,5.9-7.1c4-0.9,8.5-1.3,13.3-1.3h1.4c4.8,0,9.3,0.4,13.3,1.3c3,0.6,5.4,3.5,5.9,7.1c0.5,3.7,0.8,7,0.8,9.9
		s-0.3,6.2-0.8,9.9c-0.5,3.6-2.9,6.4-5.9,7.1c-4,0.9-8.5,1.3-13.3,1.3H145.4L145.4,242z"/>
	<path class="st8" d="M146.8,207.5c4.7,0,9,0.4,12.9,1.2c2.2,0.5,4,2.6,4.4,5.4c0.5,3.6,0.8,6.8,0.8,9.6s-0.3,6-0.8,9.6
		c-0.4,2.8-2.2,4.9-4.4,5.4c-3.9,0.8-8.2,1.2-12.9,1.2c-0.2,0-0.5,0-0.7,0l0,0l0,0c-0.2,0-0.5,0-0.7,0c-4.7,0-9-0.4-12.9-1.2
		c-2.2-0.5-4-2.6-4.4-5.4c-0.5-3.6-0.8-6.8-0.8-9.6s0.3-6,0.8-9.6c0.4-2.8,2.2-4.9,4.4-5.4c3.9-0.8,8.2-1.2,12.9-1.2
		c0.2,0,0.5,0,0.7,0l0,0l0,0C146.4,207.5,146.6,207.5,146.8,207.5 M146.8,203.5c-0.2,0-0.5,0-0.7,0s-0.5,0-0.7,0
		c-5.9,0-10.4,0.6-13.7,1.3c-3.9,0.8-6.9,4.3-7.5,8.7c-0.4,3-0.8,6.7-0.8,10.2l0,0c0,3.5,0.4,7.2,0.8,10.2c0.6,4.4,3.6,7.9,7.5,8.7
		c3.3,0.7,7.9,1.3,13.7,1.3c0.2,0,0.5,0,0.7,0s0.5,0,0.7,0c5.9,0,10.4-0.6,13.7-1.3c3.9-0.8,6.9-4.3,7.5-8.7c0.4-3,0.8-6.7,0.8-10.2
		l0,0c0-3.5-0.4-7.2-0.8-10.2c-0.6-4.4-3.6-7.9-7.5-8.7C157.3,204.1,152.7,203.5,146.8,203.5L146.8,203.5L146.8,203.5z"/>
</g>
<g>
	<path id="f" class="st6" d="M218.4,161.5h30c8.3,0,15,6.7,15,15v12c0,8.3-6.7,15-15,15h-30c-8.3,0-15-6.7-15-15v-12
		C203.4,168.2,210.1,161.5,218.4,161.5z"/>
	<path id="g" class="st1" d="M218.4,167.5h12c5,0,9,4,9,9v12c0,5-4,9-9,9h-12c-5,0-9-4-9-9v-12C209.4,171.5,213.4,167.5,218.4,167.5
		z"/>
	<g id="h">
		<path class="st6" d="M218.4,181h12c0.8,0,1.5,0.7,1.5,1.5l0,0c0,0.8-0.7,1.5-1.5,1.5h-12c-0.8,0-1.5-0.7-1.5-1.5l0,0
			C216.9,181.6,217.6,181,218.4,181z"/>
		<path class="st6" d="M218.4,181.7h12c0.4,0,0.8,0.3,0.8,0.8l0,0c0,0.4-0.3,0.8-0.8,0.8h-12c-0.4,0-0.8-0.3-0.8-0.8l0,0
			C217.7,182.1,218,181.7,218.4,181.7z"/>
	</g>
</g>
<g>
	<path class="st1" d="M91.9,177.7h-1.1c-7.2,0-13.9-0.6-19.9-1.9c-4.7-1-8.4-5.4-9.2-10.9c-0.8-5.6-1.2-10.5-1.2-14.8
		s0.4-9.3,1.2-14.9c0.8-5.5,4.5-9.9,9.2-10.9c6-1.3,12.7-1.9,19.9-1.9h1.1H93c7.2,0,13.9,0.6,19.9,1.9c4.7,1,8.4,5.4,9.2,10.9
		c0.8,5.6,1.2,10.5,1.2,14.8s-0.4,9.3-1.2,14.9c-0.8,5.5-4.5,9.9-9.2,10.9c-6,1.3-12.7,1.9-19.9,1.9H91.9z"/>
	<path class="st9" d="M93,124.8c7.1,0,13.6,0.6,19.4,1.9c3.7,0.8,6.6,4.4,7.3,8.9c0.8,5.4,1.2,10.3,1.2,14.5s-0.4,9-1.2,14.5
		c-0.6,4.5-3.6,8.1-7.3,8.9c-5.8,1.2-12.4,1.9-19.4,1.9c-0.3,0-0.7,0-1,0l0,0l0,0c-0.4,0-0.7,0-1,0c-7.1,0-13.6-0.6-19.4-1.9
		c-3.7-0.8-6.6-4.4-7.3-8.9c-0.8-5.4-1.2-10.3-1.2-14.5s0.4-9,1.2-14.5c0.6-4.5,3.6-8.1,7.3-8.9c5.8-1.2,12.4-1.9,19.4-1.9
		c0.3,0,0.7,0,1,0l0,0l0,0C92.3,124.8,92.6,124.8,93,124.8 M93,119.8c-0.4,0-0.7,0-1.1,0s-0.7,0-1.1,0c-8.7,0-15.6,0.9-20.5,2
		c-5.8,1.2-10.2,6.4-11.2,13c-0.7,4.5-1.2,10-1.2,15.2l0,0c0,5.2,0.6,10.7,1.2,15.2c1,6.6,5.4,11.8,11.2,13c4.9,1.1,11.7,2,20.5,2
		c0.4,0,0.7,0,1.1,0s0.7,0,1.1,0c8.7,0,15.6-0.9,20.5-2c5.8-1.2,10.2-6.4,11.2-13c0.7-4.5,1.2-10,1.2-15.2l0,0
		c0-5.2-0.6-10.7-1.2-15.2c-1-6.6-5.4-11.8-11.2-13C108.5,120.7,101.7,119.8,93,119.8L93,119.8z"/>
</g>
<path class="st9" d="M105.1,140.9c2.8,2.4,3.4,6.4,1.7,9.7c-0.3,0.6-0.7,1.3-1.1,1.9c-3.4,5.1-9.7,10-12.8,10s-9.4-4.8-12.8-10
	c-0.4-0.6-0.8-1.3-1.1-1.9c-1.6-3.3-1.1-7.4,1.7-9.7c1.4-1.2,3.2-1.9,5.2-1.9c2.5,0,4.8,1.2,6.2,3c0.4,0.5,1.2,0.5,1.6,0
	c1.5-1.8,3.7-3,6.2-3C101.9,139,103.7,139.7,105.1,140.9z"/>
<path class="st8" d="M148.6,212.4h-7.9c-1.6,0-2.8,1.3-2.8,2.8v16.9c0,1.6,1.3,2.8,2.8,2.8H152c1.6,0,2.8-1.3,2.8-2.8v-13
	L148.6,212.4L148.6,212.4z M153.1,219.7H148v-5.6L153.1,219.7z M153.1,232.1c0,0.6-0.5,1.1-1.1,1.1h-11.3c-0.6,0-1.1-0.5-1.1-1.1
	v-16.9c0-0.6,0.5-1.1,1.1-1.1h5.6v5.6c0,0.9,0.8,1.7,1.7,1.7h5.1V232.1L153.1,232.1z M150.9,224.2h-9v-1.7h9V224.2z M145.2,225.9
	h-3.3v1.7h3.4L145.2,225.9L145.2,225.9z M148.6,225.9h-2.3v1.7h2.3V225.9z"/>
<path class="st7" d="M308.4,71.8c-0.5-0.6-1.1-1-1.8-1.4c-0.8-2.9-4-5-7.9-5s-7.2,2.2-7.9,5.2c-0.7,0.3-1.3,0.8-1.8,1.2
	c-3.2,3.2-3.2,15.8-3.2,16.1v4.9c0,1.8,1.4,3.2,3.2,3.2h1.4c0.9,1,2.2,1.6,3.7,1.6h10.1c1.3,0,2.5-0.6,3.3-1.6h0.9
	c1.8,0,3.2-1.4,3.2-3.2V88C311.7,87.9,311.7,75,308.4,71.8L308.4,71.8z M298.8,67.8c1.6,0,3.1,0.5,4.1,1.3c-1.2-0.2-2.5-0.3-3.7-0.3
	c-1.6,0-3.3,0.2-4.8,0.6C295.4,68.4,297,67.8,298.8,67.8z M304.2,95.1h-10.1c-1.1,0-2-0.7-2.4-1.6c-0.1-0.3-0.2-0.7-0.2-1v-3
	c0-1.9,0-4.8,7.2-4.8s7.2,3.5,7.2,4.8v3.9c0,0.1,0,0.1,0,0.2C305.9,94.4,305.2,95.1,304.2,95.1L304.2,95.1z M304.1,82.3h-10.7
	c-0.3-2.2-0.4-4.4-0.2-5.2c0.7-0.6,2.9-1.3,5.9-1.3s4.7,0.7,5.1,1.1C304.5,77.7,304.5,79.9,304.1,82.3L304.1,82.3z M309.3,92.7
	c0,0.4-0.4,0.8-0.8,0.8l0,0c0-0.1,0-0.1,0-0.2v-3.9c0-1.7-0.5-3.7-2.2-5.2c0.2-1.4,1.2-7.3-0.1-8.8c-1.1-1.4-4.1-2.1-7.1-2.1
	c-3.2,0-6.4,0.7-7.7,2.1c-1.3,1.3-0.4,6.8-0.1,8.6l0,0c-1.9,1.5-2.2,3.7-2.2,5.4v3c0,0.4,0,0.7,0.1,1h-0.1c-0.4,0-0.8-0.4-0.8-0.8
	v-4.9c0-5.6,1-12.7,2.5-14.3c0.3-0.3,0.7-0.6,1.2-0.8c0.8-0.4,1.8-0.8,2.9-1.1c1.3-0.3,2.8-0.5,4.2-0.5c1.1,0,2.2,0.1,3.3,0.3
	c1.1,0.2,2.2,0.6,3,1c0.5,0.3,0.9,0.6,1.1,0.9v0.1l0.1,0.1c1.2,1.2,2.5,7.1,2.5,14.4L309.3,92.7L309.3,92.7z"/>
</svg>
