<?xml version="1.0" encoding="UTF-8"?>
<svg xmlns="http://www.w3.org/2000/svg" viewBox="0 0 480 300">
  <defs><style>
      .d {fill: #facc15;}.e {fill: #fff;}.f {fill: #ef4444;}.g {fill: #fdba74;}.h {fill: #a16207;}.i {fill: #bae6fd;}.j {fill: #cbd5e1;}.k {fill: #94a3b8;}
  </style></defs>
  <g id="a" data-name="レイヤー 3">
    <g><path class="k" d="m111.78,285c-22.16,0-40-30.09-40-55v-40c0-2.76,2.24-5,5-5h70c2.76,0,5,2.24,5,5v40c0,24.91-17.84,55-40,55Z"/><path d="m146.78,190v40c0,22.09-15.67,50-35,50h0c-19.33,0-35-27.91-35-50v-40h70m0-10h-70c-5.52,0-10,4.48-10,10v40c0,12.83,4.44,27.31,11.87,38.74,8.92,13.71,20.68,21.26,33.13,21.26s24.21-7.55,33.13-21.26c7.43-11.43,11.87-25.91,11.87-38.74v-40c0-5.52-4.48-10-10-10h0Z"/>
    </g>
    <g><path class="j" d="m111.78,245c-6,0-11.35-4.1-15.07-11.56-3.18-6.34-4.93-14.67-4.93-23.44v-30c0-.78.18-1.54.53-2.24l10-20c.85-1.69,2.58-2.76,4.47-2.76h10c1.89,0,3.62,1.07,4.47,2.76l10,20c.35.69.53,1.46.53,2.24v30c0,19.95-8.6,35-20,35Z"/><path d="m116.78,160l10,20v30c0,16.57-6.72,30-15,30-4.14,0-7.89-3.36-10.6-8.79-2.72-5.43-4.4-12.93-4.4-21.21v-30l10-20h10m0-10h-10c-3.79,0-7.25,2.14-8.94,5.53l-10,20c-.69,1.39-1.06,2.92-1.06,4.47v30c0,9.54,1.94,18.66,5.46,25.69,4.54,9.09,11.66,14.31,19.54,14.31s15-5.22,19.55-14.31c3.52-7.03,5.45-16.15,5.45-25.69v-30c0-1.55-.36-3.08-1.06-4.47l-10-20c-1.69-3.39-5.16-5.53-8.94-5.53h0Z"/>
    </g>
    <g><path class="h" d="m66.78,295c-1.89,0-3.62-1.07-4.47-2.76l-10-20c-.96-1.92-.58-4.25.94-5.77l10-10c.38-.38.82-.7,1.3-.94l20-10c.7-.35,1.47-.53,2.24-.53.53,0,1.07.08,1.58.26,1.26.42,2.3,1.32,2.89,2.51l6.9,13.79,5.09-5.09c.94-.94,2.21-1.46,3.54-1.46h30c1.18,0,2.31.41,3.21,1.17l9.12,7.65,7.35-7.35c.95-.95,2.22-1.46,3.54-1.46.27,0,.53.02.8.06,1.59.26,2.95,1.26,3.67,2.7l10,20c.96,1.92.58,4.25-.94,5.77l-10,10c-.94.94-2.21,1.46-3.54,1.46h-93.22Z"/><path d="m86.78,250l6.9,13.8c.9,1.8,2.68,2.76,4.48,2.76,1.26,0,2.53-.47,3.53-1.47l5.09-5.09h30l10,8.39c.71.36,1.48.53,2.23.53,1.3,0,2.58-.5,3.54-1.46l7.45-7.45,10,20-10,10h-93.22l-10-20,10-10,20-10m0-10c-1.54,0-3.07.35-4.47,1.06l-20,10c-.96.48-1.84,1.11-2.6,1.87l-10,10c-3.04,3.04-3.8,7.69-1.87,11.54l10,20c1.69,3.39,5.16,5.53,8.94,5.53h93.22c2.65,0,5.2-1.05,7.07-2.93l10-10c3.04-3.04,3.8-7.69,1.87-11.54l-10-20c-1.44-2.88-4.17-4.88-7.34-5.4-.53-.09-1.07-.13-1.6-.13-2.63,0-5.18,1.04-7.07,2.93l-4.12,4.12-5.61-4.71c-1.8-1.51-4.08-2.34-6.43-2.34h-30c-2.65,0-5.2,1.05-7.07,2.93l-.19.19-3.8-7.59c-1.19-2.37-3.27-4.18-5.78-5.01-1.03-.34-2.1-.51-3.16-.51h0Z"/>
    </g>
    <g><rect class="g" x="101.78" y="15" width="20" height="150" rx="5" ry="5"/><path d="m116.78,20v140h-10V20h10m0-10h-10c-5.52,0-10,4.48-10,10v140c0,5.52,4.48,10,10,10h10c5.52,0,10-4.48,10-10V20c0-5.52-4.48-10-10-10h0Z"/>
    </g>
    <g><path class="i" d="m96.78,55c-2.29,0-4.29-1.56-4.85-3.79l-10-40c-.37-1.49-.04-3.08.91-4.29.95-1.21,2.4-1.92,3.94-1.92h50c1.54,0,2.99.71,3.94,1.92.95,1.21,1.28,2.8.91,4.29l-10,40c-.56,2.23-2.56,3.79-4.85,3.79h-30Zm8.06-30c-.42,0-.67.22-.8.4-.14.18-.27.49-.16.88l2.61,8.71h10.56l3-10h-15.22Z"/><path d="m136.78,10l-10,40h-30l-10-40h50m-30.28,30h10.56c2.21,0,4.15-1.45,4.79-3.56l3-10c.96-3.21-1.44-6.44-4.79-6.44h-15.22c-4.02,0-6.9,3.87-5.75,7.72l2.61,8.71c.63,2.11,2.58,3.56,4.79,3.56M136.78,0h-50c-3.08,0-5.99,1.42-7.88,3.85-1.9,2.43-2.57,5.59-1.82,8.58l10,40c1.11,4.45,5.11,7.57,9.7,7.57h30c4.59,0,8.59-3.12,9.7-7.57l10-40c.75-2.99.08-6.15-1.82-8.58-1.9-2.43-4.8-3.85-7.88-3.85h0Zm-26.56,30h3.12-3.12Z"/>
    </g>
  </g>
  <g id="b" data-name="レイヤー 1">
    <rect x="60" y="190" width="380" height="20"/>
    <g><path class="d" d="m480,280v10c0,5.52-4.48,10-10,10h-80c-5.52,0-10-4.48-10-10v-10c0-5.52,4.48-10,10-10h2.56l27.86-92.87c1.27-4.23,5.16-7.13,9.58-7.13s8.31,2.9,9.58,7.13l27.86,92.87h2.56c5.52,0,10,4.48,10,10Z"/><path d="m470,270h-2.56l-27.86-92.87c-1.27-4.23-5.16-7.13-9.58-7.13s-8.31,2.9-9.58,7.13l-27.86,92.87h-2.56c-5.52,0-10,4.48-10,10v10c0,5.52,4.48,10,10,10h80c5.52,0,10-4.48,10-10v-10c0-5.52-4.48-10-10-10Zm-40-90l6,20h-12l6-20Zm-12,40h24l3,10h-30l3-10Zm52,70h-80v-10h15c2.76,0,5-2.24,5-5,0-1.38-.56-2.63-1.46-3.54-.91-.9-2.16-1.46-3.54-1.46h-2l6-20h42l6,20h-32c-2.76,0-5,2.24-5,5,0,1.38.56,2.63,1.46,3.54.91.9,2.16,1.46,3.54,1.46h45v10Z"/>
    </g>
    <g><path class="d" d="m350,280v10c0,5.52-4.48,10-10,10h-80c-5.52,0-10-4.48-10-10v-10c0-5.52,4.48-10,10-10h2.56l27.86-92.87c1.27-4.23,5.16-7.13,9.58-7.13s8.31,2.9,9.58,7.13l27.86,92.87h2.56c5.52,0,10,4.48,10,10Z"/><path d="m340,270h-2.56l-27.86-92.87c-1.27-4.23-5.16-7.13-9.58-7.13s-8.31,2.9-9.58,7.13l-27.86,92.87h-2.56c-5.52,0-10,4.48-10,10v10c0,5.52,4.48,10,10,10h80c5.52,0,10-4.48,10-10v-10c0-5.52-4.48-10-10-10Zm-40-90l6,20h-12l6-20Zm-12,40h24l3,10h-30l3-10Zm52,70h-80v-10h15c2.76,0,5-2.24,5-5,0-1.38-.56-2.63-1.46-3.54-.91-.9-2.16-1.46-3.54-1.46h-2l6-20h42l6,20h-32c-2.76,0-5,2.24-5,5,0,1.38.56,2.63,1.46,3.54.91.9,2.16,1.46,3.54,1.46h45v10Z"/>
    </g>
    <g><path class="d" d="m230,280v10c0,5.52-4.48,10-10,10h-80c-5.52,0-10-4.48-10-10v-10c0-5.52,4.48-10,10-10h2.56l27.86-92.87c1.27-4.23,5.16-7.13,9.58-7.13s8.31,2.9,9.58,7.13l27.86,92.87h2.56c5.52,0,10,4.48,10,10Z"/><path d="m220,270h-2.56l-27.86-92.87c-1.27-4.23-5.16-7.13-9.58-7.13s-8.31,2.9-9.58,7.13l-27.86,92.87h-2.56c-5.52,0-10,4.48-10,10v10c0,5.52,4.48,10,10,10h80c5.52,0,10-4.48,10-10v-10c0-5.52-4.48-10-10-10Zm-40-90l6,20h-12l6-20Zm-12,40h24l3,10h-30l3-10Zm52,70h-80v-10h15c2.76,0,5-2.24,5-5,0-1.38-.56-2.63-1.46-3.54-.91-.9-2.16-1.46-3.54-1.46h-2l6-20h42l6,20h-32c-2.76,0-5,2.24-5,5,0,1.38.56,2.63,1.46,3.54.91.9,2.16,1.46,3.54,1.46h45v10Z"/>
    </g>
    <g><path class="d" d="m100,280v10c0,5.52-4.48,10-10,10H10c-5.52,0-10-4.48-10-10v-10c0-5.52,4.48-10,10-10h2.56l27.86-92.87c1.27-4.23,5.16-7.13,9.58-7.13s8.31,2.9,9.58,7.13l27.86,92.87h2.56c5.52,0,10,4.48,10,10Z"/><path d="m90,270h-2.56l-27.86-92.87c-1.27-4.23-5.16-7.13-9.58-7.13s-8.31,2.9-9.58,7.13l-27.86,92.87h-2.56c-5.52,0-10,4.48-10,10v10c0,5.52,4.48,10,10,10h80c5.52,0,10-4.48,10-10v-10c0-5.52-4.48-10-10-10Zm-40-90l6,20h-12l6-20Zm-12,40h24l3,10h-30l3-10Zm52,70H10v-10h15c2.76,0,5-2.24,5-5,0-1.38-.56-2.63-1.46-3.54-.91-.9-2.16-1.46-3.54-1.46h-2l6-20h42l6,20h-32c-2.76,0-5,2.24-5,5,0,1.38.56,2.63,1.46,3.54.91.9,2.16,1.46,3.54,1.46h45v10Z"/>
    </g>
  </g>
  <g id="c" data-name="レイヤー 2">
    <g><rect class="f" x="205" y="225" width="170" height="70" rx="5" ry="5"/><path d="m370,230v60h-160v-60h160m0-10h-160c-5.52,0-10,4.48-10,10v60c0,5.52,4.48,10,10,10h160c5.52,0,10-4.48,10-10v-60c0-5.52-4.48-10-10-10h0Z"/>
    </g>
    <polygon class="e" points="312 280 312 270 230 270 230 250 312 250 312 240 352 260 312 280"/>
  </g>
</svg>